<?xml version="1.0" encoding="UTF-8" standalone="no"?>
<!DOCTYPE svg PUBLIC "-//W3C//DTD SVG 1.1//EN"
 "http://www.w3.org/Graphics/SVG/1.1/DTD/svg11.dtd">
<!-- Generated by graphviz version 2.48.0 (0)
 -->
<!-- Pages: 1 -->
<svg width="847pt" height="275pt"
 viewBox="0.00 0.00 846.54 275.42" xmlns="http://www.w3.org/2000/svg" xmlns:xlink="http://www.w3.org/1999/xlink">
<g id="graph0" class="graph" transform="scale(1 1) rotate(0) translate(4 271.42)">
<polygon fill="white" stroke="transparent" points="-4,4 -4,-271.42 842.54,-271.42 842.54,4 -4,4"/>
<!-- In0 -->
<g id="node1" class="node">
<title>In0</title>
<polygon fill="lightgray" stroke="black" points="211.79,-267.42 183.79,-267.42 183.79,-249.42 211.79,-249.42 211.79,-267.42"/>
<text text-anchor="middle" x="197.79" y="-256.22" font-family="Times,serif" font-size="9.00">In0</text>
</g>
<!-- 291 -->
<g id="node7" class="node">
<title>291</title>
<ellipse fill="white" stroke="black" cx="534.79" cy="-106.71" rx="21.43" ry="21.43"/>
<text text-anchor="middle" x="534.79" y="-104.51" font-family="Times,serif" font-size="9.00">291</text>
</g>
<!-- In0&#45;&gt;291 -->
<g id="edge1" class="edge">
<title>In0&#45;&gt;291</title>
<path fill="none" stroke="red" stroke-width="0.17" d="M193.92,-249.25C186.09,-231.41 170.84,-188.59 191.79,-163.92 231.72,-116.93 426.53,-109.14 503.46,-107.91"/>
<polygon fill="red" stroke="red" stroke-width="0.17" points="503.55,-111.41 513.5,-107.78 503.46,-104.41 503.55,-111.41"/>
</g>
<!-- 292 -->
<g id="node8" class="node">
<title>292</title>
<ellipse fill="white" stroke="black" cx="319.79" cy="-188.67" rx="21.43" ry="21.43"/>
<text text-anchor="middle" x="319.79" y="-186.47" font-family="Times,serif" font-size="9.00">292</text>
</g>
<!-- In0&#45;&gt;292 -->
<g id="edge2" class="edge">
<title>In0&#45;&gt;292</title>
<path fill="none" stroke="red" stroke-width="0.6" d="M212.27,-249.38C231.97,-238.44 267.61,-218.65 292.44,-204.87"/>
<polygon fill="red" stroke="red" stroke-width="0.6" points="294.32,-207.82 301.36,-199.91 290.92,-201.7 294.32,-207.82"/>
</g>
<!-- 1444 -->
<g id="node10" class="node">
<title>1444</title>
<ellipse fill="white" stroke="black" cx="43.79" cy="-188.67" rx="25" ry="25"/>
<text text-anchor="middle" x="43.79" y="-186.47" font-family="Times,serif" font-size="9.00">1444</text>
</g>
<!-- In0&#45;&gt;1444 -->
<g id="edge51" class="edge">
<title>In0&#45;&gt;1444</title>
<path fill="none" stroke="green" stroke-width="0.26" d="M183.64,-252.93C161.59,-245.73 117.91,-230.65 82.79,-213.42 79.47,-211.79 76.05,-209.96 72.7,-208.06"/>
<polygon fill="green" stroke="green" stroke-width="0.26" points="74.44,-205.02 64.05,-202.96 70.88,-211.05 74.44,-205.02"/>
</g>
<!-- 295 -->
<g id="node11" class="node">
<title>295</title>
<ellipse fill="white" stroke="black" cx="144.79" cy="-106.71" rx="21.43" ry="21.43"/>
<text text-anchor="middle" x="144.79" y="-104.51" font-family="Times,serif" font-size="9.00">295</text>
</g>
<!-- In0&#45;&gt;295 -->
<g id="edge3" class="edge">
<title>In0&#45;&gt;295</title>
<path fill="none" stroke="red" stroke-width="0.27" stroke-dasharray="1,5" d="M183.6,-256.32C143.63,-252.88 31.61,-240.93 9.79,-213.42 -3.87,-196.18 -2.41,-182.23 9.79,-163.92 32.76,-129.48 81.25,-116.11 113.42,-110.94"/>
<polygon fill="red" stroke="red" stroke-width="0.27" points="114.24,-114.36 123.64,-109.48 113.25,-107.43 114.24,-114.36"/>
</g>
<!-- 299 -->
<g id="node15" class="node">
<title>299</title>
<ellipse fill="white" stroke="black" cx="379.79" cy="-188.67" rx="21.43" ry="21.43"/>
<text text-anchor="middle" x="379.79" y="-186.47" font-family="Times,serif" font-size="9.00">299</text>
</g>
<!-- In0&#45;&gt;299 -->
<g id="edge4" class="edge">
<title>In0&#45;&gt;299</title>
<path fill="none" stroke="green" stroke-width="0.36" d="M211.89,-255.22C239.55,-250.51 302.42,-237.83 349.79,-213.42 351.86,-212.36 353.92,-211.14 355.93,-209.84"/>
<polygon fill="green" stroke="green" stroke-width="0.36" points="358.34,-212.42 364.39,-203.72 354.24,-206.74 358.34,-212.42"/>
</g>
<!-- 300 -->
<g id="node16" class="node">
<title>300</title>
<ellipse fill="white" stroke="black" cx="221.79" cy="-188.67" rx="21.43" ry="21.43"/>
<text text-anchor="middle" x="221.79" y="-186.47" font-family="Times,serif" font-size="9.00">300</text>
</g>
<!-- In0&#45;&gt;300 -->
<g id="edge5" class="edge">
<title>In0&#45;&gt;300</title>
<path fill="none" stroke="red" stroke-width="0.27" d="M200.64,-249.38C203.35,-241.74 207.59,-229.77 211.56,-218.55"/>
<polygon fill="red" stroke="red" stroke-width="0.27" points="214.9,-219.61 214.94,-209.01 208.3,-217.27 214.9,-219.61"/>
</g>
<!-- In1 -->
<g id="node2" class="node">
<title>In1</title>
<polygon fill="lightgray" stroke="black" points="340.79,-267.42 312.79,-267.42 312.79,-249.42 340.79,-249.42 340.79,-267.42"/>
<text text-anchor="middle" x="326.79" y="-256.22" font-family="Times,serif" font-size="9.00">In1</text>
</g>
<!-- In1&#45;&gt;291 -->
<g id="edge6" class="edge">
<title>In1&#45;&gt;291</title>
<path fill="none" stroke="red" stroke-width="0.35" d="M316.71,-249.22C307.7,-241.19 295.13,-228.05 289.79,-213.42 282.26,-192.75 276.09,-181.13 289.79,-163.92 316.21,-130.76 443.7,-115.55 503.59,-110.15"/>
<polygon fill="red" stroke="red" stroke-width="0.35" points="503.95,-113.63 513.61,-109.28 503.35,-106.66 503.95,-113.63"/>
</g>
<!-- In1&#45;&gt;292 -->
<g id="edge7" class="edge">
<title>In1&#45;&gt;292</title>
<path fill="none" stroke="green" stroke-width="0.13" d="M325.96,-249.38C325.21,-242.05 324.04,-230.75 322.92,-219.94"/>
<polygon fill="green" stroke="green" stroke-width="0.13" points="326.39,-219.46 321.88,-209.87 319.43,-220.18 326.39,-219.46"/>
</g>
<!-- 293 -->
<g id="node9" class="node">
<title>293</title>
<ellipse fill="white" stroke="black" cx="673.79" cy="-188.67" rx="21.43" ry="21.43"/>
<text text-anchor="middle" x="673.79" y="-186.47" font-family="Times,serif" font-size="9.00">293</text>
</g>
<!-- In1&#45;&gt;293 -->
<g id="edge8" class="edge">
<title>In1&#45;&gt;293</title>
<path fill="none" stroke="green" stroke-width="0.48" d="M340.81,-254.17C347.71,-252.62 356.16,-250.81 363.79,-249.42 470.77,-229.92 500.22,-239.46 605.79,-213.42 618.88,-210.19 633.01,-205.47 644.98,-201.09"/>
<polygon fill="green" stroke="green" stroke-width="0.48" points="646.32,-204.32 654.45,-197.52 643.86,-197.77 646.32,-204.32"/>
</g>
<!-- In1&#45;&gt;295 -->
<g id="edge9" class="edge">
<title>In1&#45;&gt;295</title>
<path fill="none" stroke="green" stroke-width="0.32" d="M312.79,-256.64C270.45,-253.96 145.17,-243.56 120.79,-213.42 102.4,-190.69 115.18,-156.61 128.06,-133.33"/>
<polygon fill="green" stroke="green" stroke-width="0.32" points="131.09,-135.08 133.12,-124.68 125.05,-131.54 131.09,-135.08"/>
</g>
<!-- 296 -->
<g id="node12" class="node">
<title>296</title>
<ellipse fill="white" stroke="black" cx="439.79" cy="-188.67" rx="21.43" ry="21.43"/>
<text text-anchor="middle" x="439.79" y="-186.47" font-family="Times,serif" font-size="9.00">296</text>
</g>
<!-- In1&#45;&gt;296 -->
<g id="edge10" class="edge">
<title>In1&#45;&gt;296</title>
<path fill="none" stroke="red" stroke-width="0.15" stroke-dasharray="1,5" d="M341.04,-250.85C357.94,-242.84 386.72,-228.49 409.79,-213.42 411.74,-212.15 413.71,-210.79 415.66,-209.38"/>
<polygon fill="red" stroke="red" stroke-width="0.15" points="418.15,-211.88 424,-203.05 413.92,-206.31 418.15,-211.88"/>
</g>
<!-- 297 -->
<g id="node13" class="node">
<title>297</title>
<ellipse fill="white" stroke="black" cx="575.79" cy="-188.67" rx="21.43" ry="21.43"/>
<text text-anchor="middle" x="575.79" y="-186.47" font-family="Times,serif" font-size="9.00">297</text>
</g>
<!-- In1&#45;&gt;297 -->
<g id="edge11" class="edge">
<title>In1&#45;&gt;297</title>
<path fill="none" stroke="green" stroke-width="0.65" d="M340.89,-253.58C380.23,-242.88 491.82,-212.52 545.81,-197.83"/>
<polygon fill="green" stroke="green" stroke-width="0.65" points="546.76,-201.2 555.49,-195.2 544.92,-194.44 546.76,-201.2"/>
</g>
<!-- In1&#45;&gt;299 -->
<g id="edge12" class="edge">
<title>In1&#45;&gt;299</title>
<path fill="none" stroke="red" stroke-width="1.01" d="M333.08,-249.38C339.85,-240.73 350.96,-226.53 360.65,-214.14"/>
<polygon fill="red" stroke="red" stroke-width="1.01" points="363.65,-215.99 367.06,-205.95 358.14,-211.67 363.65,-215.99"/>
</g>
<!-- In1&#45;&gt;300 -->
<g id="edge13" class="edge">
<title>In1&#45;&gt;300</title>
<path fill="none" stroke="green" stroke-width="0.11" d="M313.55,-249.29C299.4,-240.56 276.38,-226.22 256.79,-213.42 253.66,-211.37 250.38,-209.2 247.15,-207.03"/>
<polygon fill="green" stroke="green" stroke-width="0.11" points="249.05,-204.09 238.8,-201.39 245.13,-209.89 249.05,-204.09"/>
</g>
<!-- In2 -->
<g id="node3" class="node">
<title>In2</title>
<polygon fill="lightgray" stroke="black" points="400.79,-267.42 372.79,-267.42 372.79,-249.42 400.79,-249.42 400.79,-267.42"/>
<text text-anchor="middle" x="386.79" y="-256.22" font-family="Times,serif" font-size="9.00">In2</text>
</g>
<!-- In2&#45;&gt;291 -->
<g id="edge14" class="edge">
<title>In2&#45;&gt;291</title>
<path fill="none" stroke="green" stroke-width="0.34" d="M400.82,-252.63C418.55,-246.03 449.22,-232.73 469.79,-213.42 493.3,-191.37 511.54,-158.98 522.63,-135.87"/>
<polygon fill="green" stroke="green" stroke-width="0.34" points="525.9,-137.14 526.94,-126.6 519.55,-134.19 525.9,-137.14"/>
</g>
<!-- In2&#45;&gt;292 -->
<g id="edge15" class="edge">
<title>In2&#45;&gt;292</title>
<path fill="none" stroke="red" stroke-width="0.17" d="M378.85,-249.38C369.69,-240.12 354.26,-224.53 341.47,-211.59"/>
<polygon fill="red" stroke="red" stroke-width="0.17" points="343.83,-209 334.31,-204.35 338.86,-213.93 343.83,-209"/>
</g>
<!-- In2&#45;&gt;293 -->
<g id="edge16" class="edge">
<title>In2&#45;&gt;293</title>
<path fill="none" stroke="red" stroke-width="0.28" d="M401.04,-255.26C436.19,-249.77 529.67,-234.25 605.79,-213.42 618.8,-209.86 632.91,-205.09 644.89,-200.76"/>
<polygon fill="red" stroke="red" stroke-width="0.28" points="646.21,-204 654.38,-197.25 643.79,-197.43 646.21,-204"/>
</g>
<!-- In2&#45;&gt;295 -->
<g id="edge17" class="edge">
<title>In2&#45;&gt;295</title>
<path fill="none" stroke="red" stroke-width="0.11" d="M372.6,-254.31C328.02,-244.51 193.58,-214.89 191.79,-213.42 168.67,-194.44 156.54,-161.76 150.44,-137.75"/>
<polygon fill="red" stroke="red" stroke-width="0.11" points="153.79,-136.68 148.12,-127.73 146.97,-138.26 153.79,-136.68"/>
</g>
<!-- In2&#45;&gt;296 -->
<g id="edge18" class="edge">
<title>In2&#45;&gt;296</title>
<path fill="none" stroke="red" stroke-width="0.57" d="M393.08,-249.38C399.85,-240.73 410.96,-226.53 420.65,-214.14"/>
<polygon fill="red" stroke="red" stroke-width="0.57" points="423.65,-215.99 427.06,-205.95 418.14,-211.67 423.65,-215.99"/>
</g>
<!-- In2&#45;&gt;297 -->
<g id="edge19" class="edge">
<title>In2&#45;&gt;297</title>
<path fill="none" stroke="red" stroke-width="0.13" d="M400.92,-254.95C428.68,-249.75 491.93,-236.26 540.79,-213.42 544.19,-211.84 547.62,-209.94 550.93,-207.92"/>
<polygon fill="red" stroke="red" stroke-width="0.13" points="552.9,-210.81 559.35,-202.41 549.07,-204.96 552.9,-210.81"/>
</g>
<!-- In2&#45;&gt;299 -->
<g id="edge20" class="edge">
<title>In2&#45;&gt;299</title>
<path fill="none" stroke="red" stroke-width="0.35" d="M385.96,-249.38C385.21,-242.05 384.04,-230.75 382.92,-219.94"/>
<polygon fill="red" stroke="red" stroke-width="0.35" points="386.39,-219.46 381.88,-209.87 379.43,-220.18 386.39,-219.46"/>
</g>
<!-- In2&#45;&gt;300 -->
<g id="edge21" class="edge">
<title>In2&#45;&gt;300</title>
<path fill="none" stroke="red" stroke-width="0.46" d="M372.73,-251.65C345.73,-240.56 286.17,-216.1 250.47,-201.45"/>
<polygon fill="red" stroke="red" stroke-width="0.46" points="251.66,-198.15 241.08,-197.59 249,-204.63 251.66,-198.15"/>
</g>
<!-- In3 -->
<g id="node4" class="node">
<title>In3</title>
<polygon fill="lightgray" stroke="black" points="477.79,-267.42 449.79,-267.42 449.79,-249.42 477.79,-249.42 477.79,-267.42"/>
<text text-anchor="middle" x="463.79" y="-256.22" font-family="Times,serif" font-size="9.00">In3</text>
</g>
<!-- In3&#45;&gt;291 -->
<g id="edge22" class="edge">
<title>In3&#45;&gt;291</title>
<path fill="none" stroke="red" stroke-width="0.37" d="M478.14,-258.01C507.8,-258.34 575.63,-254.35 605.79,-213.42 618.85,-195.71 615.37,-183.73 605.79,-163.92 596.87,-145.47 578.61,-131.23 562.85,-121.7"/>
<polygon fill="red" stroke="red" stroke-width="0.37" points="564.37,-118.54 553.94,-116.64 560.91,-124.62 564.37,-118.54"/>
</g>
<!-- In3&#45;&gt;292 -->
<g id="edge23" class="edge">
<title>In3&#45;&gt;292</title>
<path fill="none" stroke="green" stroke-width="0.31" d="M449.49,-253.43C427.27,-246.89 383.5,-232.68 349.79,-213.42 347.78,-212.27 345.75,-210.99 343.76,-209.64"/>
<polygon fill="green" stroke="green" stroke-width="0.31" points="345.47,-206.55 335.35,-203.43 341.32,-212.19 345.47,-206.55"/>
</g>
<!-- In3&#45;&gt;293 -->
<g id="edge24" class="edge">
<title>In3&#45;&gt;293</title>
<path fill="none" stroke="red" stroke-width="0.14" d="M477.96,-255.57C508.46,-251.24 582.19,-238.78 638.79,-213.42 642.21,-211.89 645.66,-210.03 648.98,-208.02"/>
<polygon fill="red" stroke="red" stroke-width="0.14" points="650.94,-210.92 657.41,-202.53 647.12,-205.06 650.94,-210.92"/>
</g>
<!-- In3&#45;&gt;295 -->
<g id="edge25" class="edge">
<title>In3&#45;&gt;295</title>
<path fill="none" stroke="green" stroke-width="0.59" d="M467.65,-249.26C475.45,-231.45 490.64,-188.69 469.79,-163.92 432.45,-119.56 250.76,-110.21 176.51,-108.24"/>
<polygon fill="green" stroke="green" stroke-width="0.59" points="176.44,-104.74 166.36,-108 176.28,-111.73 176.44,-104.74"/>
</g>
<!-- In3&#45;&gt;296 -->
<g id="edge26" class="edge">
<title>In3&#45;&gt;296</title>
<path fill="none" stroke="green" stroke-width="0.73" d="M460.95,-249.38C458.24,-241.74 454,-229.77 450.02,-218.55"/>
<polygon fill="green" stroke="green" stroke-width="0.73" points="453.28,-217.27 446.64,-209.01 446.69,-219.61 453.28,-217.27"/>
</g>
<!-- In3&#45;&gt;297 -->
<g id="edge27" class="edge">
<title>In3&#45;&gt;297</title>
<path fill="none" stroke="green" stroke-width="0.13" d="M477.89,-249.79C493.48,-241.26 519.24,-226.87 540.79,-213.42 543.97,-211.44 547.27,-209.3 550.52,-207.16"/>
<polygon fill="green" stroke="green" stroke-width="0.13" points="552.53,-210.02 558.88,-201.54 548.63,-204.21 552.53,-210.02"/>
</g>
<!-- In3&#45;&gt;299 -->
<g id="edge28" class="edge">
<title>In3&#45;&gt;299</title>
<path fill="none" stroke="red" stroke-width="0.22" d="M453.83,-249.38C441.69,-239.59 420.76,-222.71 404.25,-209.4"/>
<polygon fill="red" stroke="red" stroke-width="0.22" points="406.06,-206.36 396.08,-202.81 401.67,-211.81 406.06,-206.36"/>
</g>
<!-- In3&#45;&gt;300 -->
<g id="edge29" class="edge">
<title>In3&#45;&gt;300</title>
<path fill="none" stroke="green" stroke-width="0.77" d="M449.7,-254.3C419.93,-247.62 348.58,-231.08 289.79,-213.42 276.98,-209.57 262.99,-204.79 251.05,-200.53"/>
<polygon fill="green" stroke="green" stroke-width="0.77" points="252.17,-197.21 241.58,-197.1 249.79,-203.79 252.17,-197.21"/>
</g>
<!-- In4 -->
<g id="node5" class="node">
<title>In4</title>
<polygon fill="lightgray" stroke="black" points="589.79,-267.42 561.79,-267.42 561.79,-249.42 589.79,-249.42 589.79,-267.42"/>
<text text-anchor="middle" x="575.79" y="-256.22" font-family="Times,serif" font-size="9.00">In4</text>
</g>
<!-- In4&#45;&gt;291 -->
<g id="edge30" class="edge">
<title>In4&#45;&gt;291</title>
<path fill="none" stroke="green" stroke-width="0.17" stroke-dasharray="1,5" d="M590.01,-255.72C625.92,-251.11 718.73,-237.09 736.79,-213.42 750.14,-195.94 750.1,-181.44 736.79,-163.92 716.13,-136.73 617.22,-119.2 565.88,-111.78"/>
<polygon fill="green" stroke="green" stroke-width="0.17" points="566.08,-108.27 555.69,-110.35 565.11,-115.2 566.08,-108.27"/>
</g>
<!-- In4&#45;&gt;292 -->
<g id="edge31" class="edge">
<title>In4&#45;&gt;292</title>
<path fill="none" stroke="green" stroke-width="0.13" d="M561.78,-255.58C518.63,-249.77 388.38,-231.16 349.79,-213.42 347.47,-212.35 345.17,-211.07 342.93,-209.66"/>
<polygon fill="green" stroke="green" stroke-width="0.13" points="344.9,-206.76 334.73,-203.78 340.82,-212.45 344.9,-206.76"/>
</g>
<!-- In4&#45;&gt;293 -->
<g id="edge32" class="edge">
<title>In4&#45;&gt;293</title>
<path fill="none" stroke="red" stroke-width="0.59" d="M587.42,-249.38C602.35,-239.06 628.67,-220.87 648.35,-207.27"/>
<polygon fill="red" stroke="red" stroke-width="0.59" points="650.35,-210.13 656.59,-201.57 646.37,-204.38 650.35,-210.13"/>
</g>
<!-- In4&#45;&gt;295 -->
<g id="edge33" class="edge">
<title>In4&#45;&gt;295</title>
<path fill="none" stroke="red" stroke-width="0.16" d="M590.02,-257.46C617.46,-256.66 677.31,-250.53 703.79,-213.42 716.57,-195.52 718.55,-180.24 703.79,-163.92 685.93,-144.17 291.5,-117.2 176.19,-109.71"/>
<polygon fill="red" stroke="red" stroke-width="0.16" points="176.13,-106.2 165.92,-109.05 175.68,-113.18 176.13,-106.2"/>
</g>
<!-- In4&#45;&gt;296 -->
<g id="edge34" class="edge">
<title>In4&#45;&gt;296</title>
<path fill="none" stroke="green" stroke-width="0.16" d="M561.75,-250.43C539.68,-239.43 496.44,-217.89 467.83,-203.64"/>
<polygon fill="green" stroke="green" stroke-width="0.16" points="469.25,-200.44 458.74,-199.11 466.13,-206.7 469.25,-200.44"/>
</g>
<!-- In4&#45;&gt;297 -->
<g id="edge35" class="edge">
<title>In4&#45;&gt;297</title>
<path fill="none" stroke="green" stroke-width="0.28" d="M575.79,-249.38C575.79,-242.11 575.79,-230.91 575.79,-220.17"/>
<polygon fill="green" stroke="green" stroke-width="0.28" points="579.29,-220.16 575.79,-210.16 572.29,-220.16 579.29,-220.16"/>
</g>
<!-- 1284 -->
<g id="node14" class="node">
<title>1284</title>
<ellipse fill="white" stroke="black" cx="813.79" cy="-188.67" rx="25" ry="25"/>
<text text-anchor="middle" x="813.79" y="-186.47" font-family="Times,serif" font-size="9.00">1284</text>
</g>
<!-- In4&#45;&gt;1284 -->
<g id="edge47" class="edge">
<title>In4&#45;&gt;1284</title>
<path fill="none" stroke="red" stroke-width="0.18" d="M590.27,-255.88C623.76,-251.95 708.81,-239.95 774.79,-213.42 778.23,-212.04 781.72,-210.37 785.11,-208.56"/>
<polygon fill="red" stroke="red" stroke-width="0.18" points="786.88,-211.58 793.81,-203.57 783.4,-205.51 786.88,-211.58"/>
</g>
<!-- In4&#45;&gt;299 -->
<g id="edge36" class="edge">
<title>In4&#45;&gt;299</title>
<path fill="none" stroke="red" stroke-width="0.48" d="M561.77,-255.68C532.3,-251.6 462.31,-239.73 409.79,-213.42 407.72,-212.38 405.65,-211.18 403.63,-209.89"/>
<polygon fill="red" stroke="red" stroke-width="0.48" points="405.32,-206.79 395.15,-203.8 401.23,-212.48 405.32,-206.79"/>
</g>
<!-- In4&#45;&gt;300 -->
<g id="edge37" class="edge">
<title>In4&#45;&gt;300</title>
<path fill="none" stroke="red" stroke-width="0.16" d="M561.63,-256.17C519.64,-252.26 392.4,-239 289.79,-213.42 276.71,-210.16 262.59,-205.43 250.62,-201.05"/>
<polygon fill="red" stroke="red" stroke-width="0.16" points="251.74,-197.74 241.15,-197.5 249.28,-204.29 251.74,-197.74"/>
</g>
<!-- act1 -->
<g id="node6" class="node">
<title>act1</title>
<ellipse fill="lightblue" stroke="black" cx="412.79" cy="-24.75" rx="21.84" ry="21.84"/>
<text text-anchor="middle" x="412.79" y="-22.55" font-family="Times,serif" font-size="9.00">act1</text>
</g>
<!-- 291&#45;&gt;act1 -->
<g id="edge38" class="edge">
<title>291&#45;&gt;act1</title>
<path fill="none" stroke="red" stroke-width="0.25" d="M517.31,-94.25C496.98,-80.93 463.19,-58.78 439.55,-43.29"/>
<polygon fill="red" stroke="red" stroke-width="0.25" points="441.32,-40.26 431.04,-37.71 437.48,-46.12 441.32,-40.26"/>
</g>
<!-- 292&#45;&gt;act1 -->
<g id="edge39" class="edge">
<title>292&#45;&gt;act1</title>
<path fill="none" stroke="red" stroke-width="0.15" d="M330.1,-169.73C346.36,-141.43 378.05,-86.24 397.13,-53.02"/>
<polygon fill="red" stroke="red" stroke-width="0.15" points="400.21,-54.69 402.15,-44.27 394.14,-51.2 400.21,-54.69"/>
</g>
<!-- 293&#45;&gt;act1 -->
<g id="edge40" class="edge">
<title>293&#45;&gt;act1</title>
<path fill="none" stroke="green" stroke-width="0.25" d="M660.47,-171.87C641.27,-149.93 603.82,-110.17 564.79,-85.5 525.98,-60.95 475.43,-43.55 443.54,-34.08"/>
<polygon fill="green" stroke="green" stroke-width="0.25" points="444.46,-30.7 433.88,-31.28 442.51,-37.42 444.46,-30.7"/>
</g>
<!-- 293&#45;&gt;291 -->
<g id="edge46" class="edge">
<title>293&#45;&gt;291</title>
<path fill="none" stroke="red" stroke-width="0.28" d="M656.93,-175.73C651.25,-171.84 644.82,-167.58 638.79,-163.92 613.54,-148.59 583.8,-132.72 562.61,-121.77"/>
<polygon fill="red" stroke="red" stroke-width="0.28" points="564.02,-118.56 553.52,-117.11 560.82,-124.79 564.02,-118.56"/>
</g>
<!-- 1444&#45;&gt;295 -->
<g id="edge52" class="edge">
<title>1444&#45;&gt;295</title>
<path fill="none" stroke="green" stroke-width="0.12" d="M62.79,-172.63C79.1,-159.72 102.69,-141.04 120.39,-127.03"/>
<polygon fill="green" stroke="green" stroke-width="0.12" points="122.88,-129.52 128.55,-120.57 118.54,-124.03 122.88,-129.52"/>
</g>
<!-- 295&#45;&gt;act1 -->
<g id="edge41" class="edge">
<title>295&#45;&gt;act1</title>
<path fill="none" stroke="red" stroke-width="1.09" d="M164.94,-99.7C211.58,-85.78 327.22,-51.28 382.47,-34.8"/>
<polygon fill="red" stroke="red" stroke-width="1.09" points="383.47,-38.15 392.05,-31.94 381.47,-31.44 383.47,-38.15"/>
</g>
<!-- 1361 -->
<g id="node17" class="node">
<title>1361</title>
<ellipse fill="none" stroke="black" cx="173.79" cy="-24.75" rx="25" ry="25"/>
<text text-anchor="middle" x="173.79" y="-22.55" font-family="Times,serif" font-size="9.00">1361</text>
</g>
<!-- 295&#45;&gt;1361 -->
<g id="edge50" class="edge">
<title>295&#45;&gt;1361</title>
<path fill="none" stroke="green" stroke-width="0.1" d="M151.81,-86.35C154.9,-77.85 158.61,-67.62 162.09,-58.02"/>
<polygon fill="green" stroke="green" stroke-width="0.1" points="165.49,-58.92 165.6,-48.33 158.91,-56.54 165.49,-58.92"/>
</g>
<!-- 296&#45;&gt;act1 -->
<g id="edge42" class="edge">
<title>296&#45;&gt;act1</title>
<path fill="none" stroke="green" stroke-width="0.39" d="M436.43,-167.49C431.77,-139.57 423.33,-88.92 417.89,-56.33"/>
<polygon fill="green" stroke="green" stroke-width="0.39" points="421.34,-55.73 416.24,-46.44 414.44,-56.88 421.34,-55.73"/>
</g>
<!-- 297&#45;&gt;act1 -->
<g id="edge43" class="edge">
<title>297&#45;&gt;act1</title>
<path fill="none" stroke="green" stroke-width="0.79" d="M559.46,-174.99C544.7,-163.29 522.63,-145.17 504.79,-127.92 478.74,-102.73 451.23,-71.47 433.15,-50.21"/>
<polygon fill="green" stroke="green" stroke-width="0.79" points="435.6,-47.69 426.48,-42.31 430.26,-52.21 435.6,-47.69"/>
</g>
<!-- 1284&#45;&gt;291 -->
<g id="edge48" class="edge">
<title>1284&#45;&gt;291</title>
<path fill="none" stroke="green" stroke-width="0.13" stroke-dasharray="1,5" d="M793.79,-173.83C787.88,-170.2 781.25,-166.57 774.79,-163.92 702.96,-134.52 612.45,-118.56 565.78,-111.76"/>
<polygon fill="green" stroke="green" stroke-width="0.13" points="566.09,-108.27 555.7,-110.34 565.11,-115.2 566.09,-108.27"/>
</g>
<!-- 299&#45;&gt;act1 -->
<g id="edge44" class="edge">
<title>299&#45;&gt;act1</title>
<path fill="none" stroke="green" stroke-width="0.19" d="M383.84,-167.82C389.52,-139.93 399.92,-88.91 406.59,-56.2"/>
<polygon fill="green" stroke="green" stroke-width="0.19" points="410.04,-56.77 408.61,-46.28 403.18,-55.38 410.04,-56.77"/>
</g>
<!-- 300&#45;&gt;act1 -->
<g id="edge45" class="edge">
<title>300&#45;&gt;act1</title>
<path fill="none" stroke="green" stroke-width="0.12" d="M237.75,-174.15C271.23,-145.76 348.99,-79.84 388.63,-46.24"/>
<polygon fill="green" stroke="green" stroke-width="0.12" points="391.11,-48.72 396.48,-39.58 386.59,-43.38 391.11,-48.72"/>
</g>
<!-- 300&#45;&gt;1361 -->
<g id="edge49" class="edge">
<title>300&#45;&gt;1361</title>
<path fill="none" stroke="green" stroke-width="0.28" d="M216,-168.14C207.94,-140.93 193.21,-91.25 183.46,-58.36"/>
<polygon fill="green" stroke="green" stroke-width="0.28" points="186.81,-57.33 180.61,-48.74 180.1,-59.32 186.81,-57.33"/>
</g>
</g>
</svg>
