<?xml version="1.0" encoding="UTF-8" standalone="no"?>
<!DOCTYPE svg PUBLIC "-//W3C//DTD SVG 1.1//EN"
 "http://www.w3.org/Graphics/SVG/1.1/DTD/svg11.dtd">
<!-- Generated by graphviz version 2.48.0 (0)
 -->
<!-- Pages: 1 -->
<svg width="485pt" height="179pt"
 viewBox="0.00 0.00 484.77 178.61" xmlns="http://www.w3.org/2000/svg" xmlns:xlink="http://www.w3.org/1999/xlink">
<g id="graph0" class="graph" transform="scale(1 1) rotate(0) translate(4 174.61)">
<polygon fill="white" stroke="transparent" points="-4,4 -4,-174.61 480.77,-174.61 480.77,4 -4,4"/>
<!-- In0 -->
<g id="node1" class="node">
<title>In0</title>
<polygon fill="lightgray" stroke="black" points="344.38,-170.61 316.38,-170.61 316.38,-152.61 344.38,-152.61 344.38,-170.61"/>
<text text-anchor="middle" x="330.38" y="-159.41" font-family="Times,serif" font-size="9.00">In0</text>
</g>
<!-- 81 -->
<g id="node7" class="node">
<title>81</title>
<ellipse fill="white" stroke="black" cx="183.38" cy="-98.23" rx="18.27" ry="18.27"/>
<text text-anchor="middle" x="183.38" y="-96.03" font-family="Times,serif" font-size="9.00">81</text>
</g>
<!-- In0&#45;&gt;81 -->
<g id="edge1" class="edge">
<title>In0&#45;&gt;81</title>
<path fill="none" stroke="red" stroke-width="0.18" d="M316.34,-155.6C287.01,-145.1 221.18,-121.4 211.38,-116.61 210,-115.93 208.6,-115.21 207.2,-114.45"/>
<polygon fill="red" stroke="red" stroke-width="0.18" points="208.58,-111.2 198.18,-109.18 205.05,-117.25 208.58,-111.2"/>
</g>
<!-- 82 -->
<g id="node8" class="node">
<title>82</title>
<ellipse fill="white" stroke="black" cx="238.38" cy="-98.23" rx="18.27" ry="18.27"/>
<text text-anchor="middle" x="238.38" y="-96.03" font-family="Times,serif" font-size="9.00">82</text>
</g>
<!-- In0&#45;&gt;82 -->
<g id="edge2" class="edge">
<title>In0&#45;&gt;82</title>
<path fill="none" stroke="green" stroke-width="0.43" d="M318.36,-152.59C304.17,-143.12 280.25,-127.16 262.26,-115.15"/>
<polygon fill="green" stroke="green" stroke-width="0.43" points="263.73,-111.93 253.47,-109.29 259.85,-117.75 263.73,-111.93"/>
</g>
<!-- 83 -->
<g id="node9" class="node">
<title>83</title>
<ellipse fill="white" stroke="black" cx="293.38" cy="-98.23" rx="18.27" ry="18.27"/>
<text text-anchor="middle" x="293.38" y="-96.03" font-family="Times,serif" font-size="9.00">83</text>
</g>
<!-- In0&#45;&gt;83 -->
<g id="edge3" class="edge">
<title>In0&#45;&gt;83</title>
<path fill="none" stroke="red" stroke-width="0.42" d="M325.55,-152.59C321.06,-145.15 314.16,-133.69 307.89,-123.3"/>
<polygon fill="red" stroke="red" stroke-width="0.42" points="310.79,-121.32 302.63,-114.57 304.8,-124.94 310.79,-121.32"/>
</g>
<!-- 84 -->
<g id="node10" class="node">
<title>84</title>
<ellipse fill="white" stroke="black" cx="348.38" cy="-98.23" rx="18.27" ry="18.27"/>
<text text-anchor="middle" x="348.38" y="-96.03" font-family="Times,serif" font-size="9.00">84</text>
</g>
<!-- In0&#45;&gt;84 -->
<g id="edge4" class="edge">
<title>In0&#45;&gt;84</title>
<path fill="none" stroke="green" stroke-width="0.34" d="M332.74,-152.59C334.75,-145.74 337.75,-135.48 340.6,-125.79"/>
<polygon fill="green" stroke="green" stroke-width="0.34" points="343.99,-126.64 343.45,-116.05 337.28,-124.67 343.99,-126.64"/>
</g>
<!-- 86 -->
<g id="node11" class="node">
<title>86</title>
<ellipse fill="white" stroke="black" cx="403.38" cy="-98.23" rx="18.27" ry="18.27"/>
<text text-anchor="middle" x="403.38" y="-96.03" font-family="Times,serif" font-size="9.00">86</text>
</g>
<!-- In0&#45;&gt;86 -->
<g id="edge5" class="edge">
<title>In0&#45;&gt;86</title>
<path fill="none" stroke="red" stroke-width="0.21" d="M339.93,-152.59C350.52,-143.67 367.97,-129 381.89,-117.3"/>
<polygon fill="red" stroke="red" stroke-width="0.21" points="384.2,-119.93 389.6,-110.82 379.69,-114.57 384.2,-119.93"/>
</g>
<!-- 87 -->
<g id="node12" class="node">
<title>87</title>
<ellipse fill="white" stroke="black" cx="458.38" cy="-98.23" rx="18.27" ry="18.27"/>
<text text-anchor="middle" x="458.38" y="-96.03" font-family="Times,serif" font-size="9.00">87</text>
</g>
<!-- In0&#45;&gt;87 -->
<g id="edge6" class="edge">
<title>In0&#45;&gt;87</title>
<path fill="none" stroke="green" stroke-width="0.25" d="M344.59,-155.1C364.25,-147.31 400.69,-132.26 430.38,-116.61 431.71,-115.91 433.06,-115.17 434.42,-114.41"/>
<polygon fill="green" stroke="green" stroke-width="0.25" points="436.4,-117.3 443.21,-109.19 432.82,-111.28 436.4,-117.3"/>
</g>
<!-- 88 -->
<g id="node13" class="node">
<title>88</title>
<ellipse fill="white" stroke="black" cx="18.38" cy="-98.23" rx="18.27" ry="18.27"/>
<text text-anchor="middle" x="18.38" y="-96.03" font-family="Times,serif" font-size="9.00">88</text>
</g>
<!-- In0&#45;&gt;88 -->
<g id="edge7" class="edge">
<title>In0&#45;&gt;88</title>
<path fill="none" stroke="red" stroke-width="0.36" d="M315.91,-155.09C313.11,-154.16 310.18,-153.28 307.38,-152.61 193.53,-125.24 156.53,-156.36 46.38,-116.61 44.94,-116.09 43.49,-115.48 42.05,-114.82"/>
<polygon fill="red" stroke="red" stroke-width="0.36" points="43.36,-111.55 32.9,-109.83 40.01,-117.69 43.36,-111.55"/>
</g>
<!-- 89 -->
<g id="node14" class="node">
<title>89</title>
<ellipse fill="white" stroke="black" cx="73.38" cy="-98.23" rx="18.27" ry="18.27"/>
<text text-anchor="middle" x="73.38" y="-96.03" font-family="Times,serif" font-size="9.00">89</text>
</g>
<!-- In0&#45;&gt;89 -->
<g id="edge8" class="edge">
<title>In0&#45;&gt;89</title>
<path fill="none" stroke="green" stroke-width="0.42" d="M315.89,-155.17C313.09,-154.24 310.17,-153.33 307.38,-152.61 217.42,-129.27 188.23,-149.73 101.38,-116.61 99.95,-116.06 98.5,-115.44 97.07,-114.76"/>
<polygon fill="green" stroke="green" stroke-width="0.42" points="98.39,-111.49 87.95,-109.72 95.01,-117.62 98.39,-111.49"/>
</g>
<!-- 90 -->
<g id="node15" class="node">
<title>90</title>
<ellipse fill="white" stroke="black" cx="128.38" cy="-98.23" rx="18.27" ry="18.27"/>
<text text-anchor="middle" x="128.38" y="-96.03" font-family="Times,serif" font-size="9.00">90</text>
</g>
<!-- In0&#45;&gt;90 -->
<g id="edge9" class="edge">
<title>In0&#45;&gt;90</title>
<path fill="none" stroke="red" stroke-width="0.36" d="M316.35,-155.48C313.4,-154.47 310.31,-153.46 307.38,-152.61 241.16,-133.25 220.07,-143.15 156.38,-116.61 154.97,-116.02 153.54,-115.36 152.11,-114.65"/>
<polygon fill="red" stroke="red" stroke-width="0.36" points="153.45,-111.39 143.02,-109.54 150.02,-117.49 153.45,-111.39"/>
</g>
<!-- In1 -->
<g id="node2" class="node">
<title>In1</title>
<polygon fill="lightgray" stroke="black" points="160.38,-170.61 132.38,-170.61 132.38,-152.61 160.38,-152.61 160.38,-170.61"/>
<text text-anchor="middle" x="146.38" y="-159.41" font-family="Times,serif" font-size="9.00">In1</text>
</g>
<!-- In1&#45;&gt;81 -->
<g id="edge10" class="edge">
<title>In1&#45;&gt;81</title>
<path fill="none" stroke="green" stroke-width="0.44" d="M151.22,-152.59C155.71,-145.15 162.61,-133.69 168.87,-123.3"/>
<polygon fill="green" stroke="green" stroke-width="0.44" points="171.97,-124.94 174.14,-114.57 165.98,-121.32 171.97,-124.94"/>
</g>
<!-- In1&#45;&gt;82 -->
<g id="edge11" class="edge">
<title>In1&#45;&gt;82</title>
<path fill="none" stroke="red" stroke-width="0.1" d="M158.41,-152.59C172.6,-143.12 196.52,-127.16 214.51,-115.15"/>
<polygon fill="red" stroke="red" stroke-width="0.1" points="216.92,-117.75 223.3,-109.29 213.04,-111.93 216.92,-117.75"/>
</g>
<!-- In1&#45;&gt;83 -->
<g id="edge12" class="edge">
<title>In1&#45;&gt;83</title>
<path fill="none" stroke="red" stroke-width="0.14" d="M160.43,-155.6C189.76,-145.1 255.59,-121.4 265.38,-116.61 266.77,-115.93 268.17,-115.21 269.57,-114.45"/>
<polygon fill="red" stroke="red" stroke-width="0.14" points="271.72,-117.25 278.59,-109.18 268.19,-111.2 271.72,-117.25"/>
</g>
<!-- In1&#45;&gt;84 -->
<g id="edge13" class="edge">
<title>In1&#45;&gt;84</title>
<path fill="none" stroke="red" stroke-width="0.7" d="M160.42,-155.48C163.37,-154.47 166.46,-153.46 169.38,-152.61 235.61,-133.25 256.7,-143.15 320.38,-116.61 321.8,-116.02 323.23,-115.36 324.66,-114.65"/>
<polygon fill="red" stroke="red" stroke-width="0.7" points="326.75,-117.49 333.75,-109.54 323.32,-111.39 326.75,-117.49"/>
</g>
<!-- In1&#45;&gt;86 -->
<g id="edge14" class="edge">
<title>In1&#45;&gt;86</title>
<path fill="none" stroke="green" stroke-width="0.39" d="M160.88,-155.17C163.67,-154.24 166.6,-153.33 169.38,-152.61 259.35,-129.27 288.54,-149.73 375.38,-116.61 376.82,-116.06 378.27,-115.44 379.7,-114.76"/>
<polygon fill="green" stroke="green" stroke-width="0.39" points="381.76,-117.62 388.82,-109.72 378.38,-111.49 381.76,-117.62"/>
</g>
<!-- In1&#45;&gt;87 -->
<g id="edge15" class="edge">
<title>In1&#45;&gt;87</title>
<path fill="none" stroke="green" stroke-width="0.35" d="M160.86,-155.09C163.66,-154.16 166.59,-153.28 169.38,-152.61 283.24,-125.24 320.24,-156.36 430.38,-116.61 431.83,-116.09 433.28,-115.48 434.72,-114.82"/>
<polygon fill="green" stroke="green" stroke-width="0.35" points="436.76,-117.69 443.86,-109.83 433.41,-111.55 436.76,-117.69"/>
</g>
<!-- In1&#45;&gt;88 -->
<g id="edge16" class="edge">
<title>In1&#45;&gt;88</title>
<path fill="none" stroke="green" stroke-width="0.11" d="M132.18,-155.1C112.52,-147.31 76.08,-132.26 46.38,-116.61 45.06,-115.91 43.71,-115.17 42.35,-114.41"/>
<polygon fill="green" stroke="green" stroke-width="0.11" points="43.95,-111.28 33.56,-109.19 40.37,-117.3 43.95,-111.28"/>
</g>
<!-- In1&#45;&gt;89 -->
<g id="edge17" class="edge">
<title>In1&#45;&gt;89</title>
<path fill="none" stroke="green" stroke-width="0.11" d="M136.84,-152.59C126.24,-143.67 108.8,-129 94.88,-117.3"/>
<polygon fill="green" stroke="green" stroke-width="0.11" points="97.08,-114.57 87.17,-110.82 92.57,-119.93 97.08,-114.57"/>
</g>
<!-- In1&#45;&gt;90 -->
<g id="edge18" class="edge">
<title>In1&#45;&gt;90</title>
<path fill="none" stroke="green" stroke-width="0.3" d="M144.03,-152.59C142.02,-145.74 139.02,-135.48 136.17,-125.79"/>
<polygon fill="green" stroke="green" stroke-width="0.3" points="139.49,-124.67 133.32,-116.05 132.78,-126.64 139.49,-124.67"/>
</g>
<!-- In2 -->
<g id="node3" class="node">
<title>In2</title>
<polygon fill="lightgray" stroke="black" points="206.38,-170.61 178.38,-170.61 178.38,-152.61 206.38,-152.61 206.38,-170.61"/>
<text text-anchor="middle" x="192.38" y="-159.41" font-family="Times,serif" font-size="9.00">In2</text>
</g>
<!-- In2&#45;&gt;81 -->
<g id="edge19" class="edge">
<title>In2&#45;&gt;81</title>
<path fill="none" stroke="red" stroke-width="0.25" d="M191.21,-152.59C190.23,-145.9 188.77,-135.98 187.38,-126.5"/>
<polygon fill="red" stroke="red" stroke-width="0.25" points="190.84,-125.95 185.93,-116.56 183.91,-126.96 190.84,-125.95"/>
</g>
<!-- In2&#45;&gt;82 -->
<g id="edge20" class="edge">
<title>In2&#45;&gt;82</title>
<path fill="none" stroke="green" stroke-width="0.32" d="M198.4,-152.59C204.24,-144.79 213.39,-132.59 221.46,-121.82"/>
<polygon fill="green" stroke="green" stroke-width="0.32" points="224.42,-123.7 227.61,-113.6 218.82,-119.5 224.42,-123.7"/>
</g>
<!-- In2&#45;&gt;83 -->
<g id="edge21" class="edge">
<title>In2&#45;&gt;83</title>
<path fill="none" stroke="red" stroke-width="0.26" d="M205.87,-152.55C220.55,-143.77 244.68,-129.27 265.38,-116.61 266.67,-115.83 267.98,-115.02 269.3,-114.21"/>
<polygon fill="red" stroke="red" stroke-width="0.26" points="271.34,-117.06 278,-108.83 267.66,-111.11 271.34,-117.06"/>
</g>
<!-- In2&#45;&gt;84 -->
<g id="edge22" class="edge">
<title>In2&#45;&gt;84</title>
<path fill="none" stroke="red" stroke-width="0.18" d="M206.49,-155.69C209.43,-154.67 212.51,-153.6 215.38,-152.61 262.02,-136.51 275.81,-137.76 320.38,-116.61 321.77,-115.95 323.18,-115.24 324.58,-114.49"/>
<polygon fill="red" stroke="red" stroke-width="0.18" points="326.73,-117.3 333.62,-109.25 323.22,-111.24 326.73,-117.3"/>
</g>
<!-- In2&#45;&gt;86 -->
<g id="edge23" class="edge">
<title>In2&#45;&gt;86</title>
<path fill="none" stroke="green" stroke-width="0.3" d="M206.41,-155.45C209.36,-154.44 212.46,-153.45 215.38,-152.61 285.47,-132.61 307.93,-144.22 375.38,-116.61 376.81,-116.03 378.24,-115.38 379.67,-114.68"/>
<polygon fill="green" stroke="green" stroke-width="0.3" points="381.75,-117.52 388.77,-109.58 378.33,-111.41 381.75,-117.52"/>
</g>
<!-- In2&#45;&gt;87 -->
<g id="edge24" class="edge">
<title>In2&#45;&gt;87</title>
<path fill="none" stroke="red" stroke-width="0.26" d="M206.87,-155.16C209.67,-154.22 212.6,-153.32 215.38,-152.61 309.25,-128.61 339.74,-150.81 430.38,-116.61 431.82,-116.07 433.27,-115.45 434.7,-114.77"/>
<polygon fill="red" stroke="red" stroke-width="0.26" points="436.76,-117.63 443.83,-109.74 433.38,-111.5 436.76,-117.63"/>
</g>
<!-- In2&#45;&gt;88 -->
<g id="edge25" class="edge">
<title>In2&#45;&gt;88</title>
<path fill="none" stroke="green" stroke-width="0.26" d="M178.31,-155.59C175.37,-154.58 172.28,-153.54 169.38,-152.61 115.14,-135.25 98.39,-139.85 46.38,-116.61 44.98,-115.98 43.56,-115.3 42.15,-114.57"/>
<polygon fill="green" stroke="green" stroke-width="0.26" points="43.5,-111.31 33.08,-109.39 40.03,-117.39 43.5,-111.31"/>
</g>
<!-- In2&#45;&gt;89 -->
<g id="edge26" class="edge">
<title>In2&#45;&gt;89</title>
<path fill="none" stroke="green" stroke-width="0.41" d="M178.28,-154.35C160.19,-146.19 127.98,-131.24 101.38,-116.61 100.07,-115.89 98.73,-115.13 97.38,-114.35"/>
<polygon fill="green" stroke="green" stroke-width="0.41" points="98.99,-111.23 88.62,-109.09 95.39,-117.23 98.99,-111.23"/>
</g>
<!-- In2&#45;&gt;90 -->
<g id="edge27" class="edge">
<title>In2&#45;&gt;90</title>
<path fill="none" stroke="green" stroke-width="0.59" d="M184.02,-152.59C175.12,-144.05 160.73,-130.25 148.81,-118.81"/>
<polygon fill="green" stroke="green" stroke-width="0.59" points="151.05,-116.12 141.41,-111.72 146.21,-121.17 151.05,-116.12"/>
</g>
<!-- In3 -->
<g id="node4" class="node">
<title>In3</title>
<polygon fill="lightgray" stroke="black" points="252.38,-170.61 224.38,-170.61 224.38,-152.61 252.38,-152.61 252.38,-170.61"/>
<text text-anchor="middle" x="238.38" y="-159.41" font-family="Times,serif" font-size="9.00">In3</text>
</g>
<!-- In3&#45;&gt;81 -->
<g id="edge28" class="edge">
<title>In3&#45;&gt;81</title>
<path fill="none" stroke="red" stroke-width="0.24" d="M231.19,-152.59C223.88,-144.43 212.25,-131.44 202.28,-120.32"/>
<polygon fill="red" stroke="red" stroke-width="0.24" points="204.69,-117.76 195.41,-112.65 199.48,-122.43 204.69,-117.76"/>
</g>
<!-- In3&#45;&gt;82 -->
<g id="edge29" class="edge">
<title>In3&#45;&gt;82</title>
<path fill="none" stroke="green" stroke-width="0.51" d="M238.38,-152.59C238.38,-146.02 238.38,-136.33 238.38,-127"/>
<polygon fill="green" stroke="green" stroke-width="0.51" points="241.88,-126.81 238.38,-116.81 234.88,-126.81 241.88,-126.81"/>
</g>
<!-- In3&#45;&gt;83 -->
<g id="edge30" class="edge">
<title>In3&#45;&gt;83</title>
<path fill="none" stroke="green" stroke-width="0.13" d="M245.58,-152.59C252.89,-144.43 264.52,-131.44 274.48,-120.32"/>
<polygon fill="green" stroke="green" stroke-width="0.13" points="277.29,-122.43 281.36,-112.65 272.08,-117.76 277.29,-122.43"/>
</g>
<!-- In3&#45;&gt;84 -->
<g id="edge31" class="edge">
<title>In3&#45;&gt;84</title>
<path fill="none" stroke="red" stroke-width="0.11" d="M252.46,-153.4C268.91,-144.9 296.89,-130.19 320.38,-116.61 321.69,-115.86 323.01,-115.08 324.35,-114.28"/>
<polygon fill="red" stroke="red" stroke-width="0.11" points="326.36,-117.16 333.09,-108.97 322.72,-111.18 326.36,-117.16"/>
</g>
<!-- In3&#45;&gt;86 -->
<g id="edge32" class="edge">
<title>In3&#45;&gt;86</title>
<path fill="none" stroke="green" stroke-width="0.32" d="M252.47,-155.64C255.41,-154.62 258.5,-153.57 261.38,-152.61 311.82,-135.88 327.11,-138.8 375.38,-116.61 376.78,-115.97 378.19,-115.27 379.6,-114.53"/>
<polygon fill="green" stroke="green" stroke-width="0.32" points="381.73,-117.34 388.66,-109.32 378.24,-111.28 381.73,-117.34"/>
</g>
<!-- In3&#45;&gt;87 -->
<g id="edge33" class="edge">
<title>In3&#45;&gt;87</title>
<path fill="none" stroke="green" stroke-width="0.24" d="M252.41,-155.42C255.35,-154.42 258.45,-153.43 261.38,-152.61 335.35,-131.96 359.15,-145.29 430.38,-116.61 431.81,-116.04 433.25,-115.39 434.67,-114.7"/>
<polygon fill="green" stroke="green" stroke-width="0.24" points="436.76,-117.54 443.78,-109.61 433.34,-111.43 436.76,-117.54"/>
</g>
<!-- In3&#45;&gt;88 -->
<g id="edge34" class="edge">
<title>In3&#45;&gt;88</title>
<path fill="none" stroke="green" stroke-width="0.27" d="M224.36,-155.42C221.42,-154.42 218.32,-153.43 215.38,-152.61 141.42,-131.96 117.62,-145.29 46.38,-116.61 44.96,-116.04 43.52,-115.39 42.1,-114.7"/>
<polygon fill="green" stroke="green" stroke-width="0.27" points="43.43,-111.43 32.99,-109.61 40.01,-117.54 43.43,-111.43"/>
</g>
<!-- In3&#45;&gt;89 -->
<g id="edge35" class="edge">
<title>In3&#45;&gt;89</title>
<path fill="none" stroke="green" stroke-width="0.2" d="M224.3,-155.64C221.36,-154.62 218.27,-153.57 215.38,-152.61 164.95,-135.88 149.66,-138.8 101.38,-116.61 99.99,-115.97 98.58,-115.27 97.17,-114.53"/>
<polygon fill="green" stroke="green" stroke-width="0.2" points="98.53,-111.28 88.11,-109.32 95.04,-117.34 98.53,-111.28"/>
</g>
<!-- In3&#45;&gt;90 -->
<g id="edge36" class="edge">
<title>In3&#45;&gt;90</title>
<path fill="none" stroke="green" stroke-width="0.18" d="M224.31,-153.4C207.86,-144.9 179.88,-130.19 156.38,-116.61 155.08,-115.86 153.76,-115.08 152.42,-114.28"/>
<polygon fill="green" stroke="green" stroke-width="0.18" points="154.05,-111.18 143.68,-108.97 150.41,-117.16 154.05,-111.18"/>
</g>
<!-- In4 -->
<g id="node5" class="node">
<title>In4</title>
<polygon fill="lightgray" stroke="black" points="298.38,-170.61 270.38,-170.61 270.38,-152.61 298.38,-152.61 298.38,-170.61"/>
<text text-anchor="middle" x="284.38" y="-159.41" font-family="Times,serif" font-size="9.00">In4</text>
</g>
<!-- In4&#45;&gt;81 -->
<g id="edge37" class="edge">
<title>In4&#45;&gt;81</title>
<path fill="none" stroke="red" stroke-width="0.17" d="M270.9,-152.55C256.22,-143.77 232.09,-129.27 211.38,-116.61 210.1,-115.83 208.79,-115.02 207.47,-114.21"/>
<polygon fill="red" stroke="red" stroke-width="0.17" points="209.11,-111.11 198.77,-108.83 205.43,-117.06 209.11,-111.11"/>
</g>
<!-- In4&#45;&gt;82 -->
<g id="edge38" class="edge">
<title>In4&#45;&gt;82</title>
<path fill="none" stroke="red" stroke-width="0.12" d="M278.37,-152.59C272.53,-144.79 263.38,-132.59 255.31,-121.82"/>
<polygon fill="red" stroke="red" stroke-width="0.12" points="257.95,-119.5 249.16,-113.6 252.35,-123.7 257.95,-119.5"/>
</g>
<!-- In4&#45;&gt;83 -->
<g id="edge39" class="edge">
<title>In4&#45;&gt;83</title>
<path fill="none" stroke="green" stroke-width="0.24" d="M285.56,-152.59C286.54,-145.9 288,-135.98 289.39,-126.5"/>
<polygon fill="green" stroke="green" stroke-width="0.24" points="292.86,-126.96 290.84,-116.56 285.93,-125.95 292.86,-126.96"/>
</g>
<!-- In4&#45;&gt;84 -->
<g id="edge40" class="edge">
<title>In4&#45;&gt;84</title>
<path fill="none" stroke="green" stroke-width="0.31" d="M292.75,-152.59C301.65,-144.05 316.04,-130.25 327.96,-118.81"/>
<polygon fill="green" stroke="green" stroke-width="0.31" points="330.56,-121.17 335.36,-111.72 325.72,-116.12 330.56,-121.17"/>
</g>
<!-- In4&#45;&gt;86 -->
<g id="edge41" class="edge">
<title>In4&#45;&gt;86</title>
<path fill="none" stroke="green" stroke-width="0.11" d="M298.49,-154.35C316.58,-146.19 348.79,-131.24 375.38,-116.61 376.7,-115.89 378.04,-115.13 379.39,-114.35"/>
<polygon fill="green" stroke="green" stroke-width="0.11" points="381.38,-117.23 388.15,-109.09 377.78,-111.23 381.38,-117.23"/>
</g>
<!-- In4&#45;&gt;87 -->
<g id="edge42" class="edge">
<title>In4&#45;&gt;87</title>
<path fill="none" stroke="red" stroke-width="0.42" d="M298.46,-155.59C301.4,-154.58 304.49,-153.54 307.38,-152.61 361.63,-135.25 378.38,-139.85 430.38,-116.61 431.79,-115.98 433.21,-115.3 434.62,-114.57"/>
<polygon fill="red" stroke="red" stroke-width="0.42" points="436.74,-117.39 443.69,-109.39 433.27,-111.31 436.74,-117.39"/>
</g>
<!-- In4&#45;&gt;88 -->
<g id="edge43" class="edge">
<title>In4&#45;&gt;88</title>
<path fill="none" stroke="red" stroke-width="0.42" d="M269.9,-155.16C267.1,-154.22 264.17,-153.32 261.38,-152.61 167.52,-128.61 137.03,-150.81 46.38,-116.61 44.95,-116.07 43.5,-115.45 42.07,-114.77"/>
<polygon fill="red" stroke="red" stroke-width="0.42" points="43.39,-111.5 32.94,-109.74 40.01,-117.63 43.39,-111.5"/>
</g>
<!-- In4&#45;&gt;89 -->
<g id="edge44" class="edge">
<title>In4&#45;&gt;89</title>
<path fill="none" stroke="green" stroke-width="0.3" d="M270.36,-155.45C267.41,-154.44 264.31,-153.45 261.38,-152.61 191.29,-132.61 168.84,-144.22 101.38,-116.61 99.96,-116.03 98.53,-115.38 97.1,-114.68"/>
<polygon fill="green" stroke="green" stroke-width="0.3" points="98.44,-111.41 88,-109.58 95.02,-117.52 98.44,-111.41"/>
</g>
<!-- In4&#45;&gt;90 -->
<g id="edge45" class="edge">
<title>In4&#45;&gt;90</title>
<path fill="none" stroke="green" stroke-width="0.29" d="M270.28,-155.69C267.34,-154.67 264.26,-153.6 261.38,-152.61 214.75,-136.51 200.96,-137.76 156.38,-116.61 155,-115.95 153.59,-115.24 152.18,-114.49"/>
<polygon fill="green" stroke="green" stroke-width="0.29" points="153.55,-111.24 143.15,-109.25 150.04,-117.3 153.55,-111.24"/>
</g>
<!-- act1 -->
<g id="node6" class="node">
<title>act1</title>
<ellipse fill="lightblue" stroke="black" cx="238.38" cy="-21.92" rx="21.84" ry="21.84"/>
<text text-anchor="middle" x="238.38" y="-19.72" font-family="Times,serif" font-size="9.00">act1</text>
</g>
<!-- 81&#45;&gt;act1 -->
<g id="edge46" class="edge">
<title>81&#45;&gt;act1</title>
<path fill="none" stroke="green" stroke-width="0.47" d="M193.99,-82.9C201.27,-73.06 211.14,-59.73 219.72,-48.13"/>
<polygon fill="green" stroke="green" stroke-width="0.47" points="222.55,-50.19 225.69,-40.07 216.93,-46.03 222.55,-50.19"/>
</g>
<!-- 82&#45;&gt;act1 -->
<g id="edge47" class="edge">
<title>82&#45;&gt;act1</title>
<path fill="none" stroke="red" stroke-width="0.27" d="M238.38,-79.62C238.38,-72.05 238.38,-62.97 238.38,-54.32"/>
<polygon fill="red" stroke="red" stroke-width="0.27" points="241.88,-54.11 238.38,-44.11 234.88,-54.11 241.88,-54.11"/>
</g>
<!-- 83&#45;&gt;act1 -->
<g id="edge48" class="edge">
<title>83&#45;&gt;act1</title>
<path fill="none" stroke="red" stroke-width="0.14" d="M282.78,-82.9C275.5,-73.06 265.63,-59.73 257.05,-48.13"/>
<polygon fill="red" stroke="red" stroke-width="0.14" points="259.84,-46.03 251.08,-40.07 254.22,-50.19 259.84,-46.03"/>
</g>
<!-- 84&#45;&gt;act1 -->
<g id="edge49" class="edge">
<title>84&#45;&gt;act1</title>
<path fill="none" stroke="green" stroke-width="0.24" d="M333.55,-87.2C315.92,-75.3 286.19,-55.21 264.65,-40.66"/>
<polygon fill="green" stroke="green" stroke-width="0.24" points="266.5,-37.69 256.26,-34.99 262.59,-43.49 266.5,-37.69"/>
</g>
<!-- 86&#45;&gt;act1 -->
<g id="edge50" class="edge">
<title>86&#45;&gt;act1</title>
<path fill="none" stroke="green" stroke-width="0.2" d="M388.53,-87.38C384.36,-84.79 379.76,-82.09 375.38,-79.84 339.68,-61.49 296.67,-44.39 268.48,-33.81"/>
<polygon fill="green" stroke="green" stroke-width="0.2" points="269.4,-30.42 258.81,-30.22 266.97,-36.98 269.4,-30.42"/>
</g>
<!-- 87&#45;&gt;act1 -->
<g id="edge51" class="edge">
<title>87&#45;&gt;act1</title>
<path fill="none" stroke="green" stroke-width="0.42" d="M443.68,-87.07C439.51,-84.48 434.87,-81.86 430.38,-79.84 376.17,-55.5 308.76,-38.29 269.94,-29.54"/>
<polygon fill="green" stroke="green" stroke-width="0.42" points="270.3,-26.03 259.78,-27.29 268.79,-32.87 270.3,-26.03"/>
</g>
<!-- 88&#45;&gt;act1 -->
<g id="edge52" class="edge">
<title>88&#45;&gt;act1</title>
<path fill="none" stroke="green" stroke-width="0.24" d="M33.09,-87.07C37.26,-84.48 41.9,-81.86 46.38,-79.84 100.6,-55.5 168.01,-38.29 206.83,-29.54"/>
<polygon fill="green" stroke="green" stroke-width="0.24" points="207.98,-32.87 216.99,-27.29 206.47,-26.03 207.98,-32.87"/>
</g>
<!-- 89&#45;&gt;act1 -->
<g id="edge53" class="edge">
<title>89&#45;&gt;act1</title>
<path fill="none" stroke="green" stroke-width="0.17" d="M88.24,-87.38C92.41,-84.79 97.01,-82.09 101.38,-79.84 137.09,-61.49 180.1,-44.39 208.29,-33.81"/>
<polygon fill="green" stroke="green" stroke-width="0.17" points="209.8,-36.98 217.96,-30.22 207.37,-30.42 209.8,-36.98"/>
</g>
<!-- 90&#45;&gt;act1 -->
<g id="edge54" class="edge">
<title>90&#45;&gt;act1</title>
<path fill="none" stroke="green" stroke-width="0.1" d="M143.22,-87.2C160.85,-75.3 190.58,-55.21 212.12,-40.66"/>
<polygon fill="green" stroke="green" stroke-width="0.1" points="214.18,-43.49 220.51,-34.99 210.26,-37.69 214.18,-43.49"/>
</g>
</g>
</svg>
