<?xml version="1.0" encoding="UTF-8" standalone="no"?>
<!DOCTYPE svg PUBLIC "-//W3C//DTD SVG 1.1//EN"
 "http://www.w3.org/Graphics/SVG/1.1/DTD/svg11.dtd">
<!-- Generated by graphviz version 2.38.0 (20140413.2041)
 -->
<!-- Title: %3 Pages: 1 -->
<svg width="590pt" height="186pt"
 viewBox="0.00 0.00 590.43 185.68" xmlns="http://www.w3.org/2000/svg" xmlns:xlink="http://www.w3.org/1999/xlink">
<g id="graph0" class="graph" transform="scale(1 1) rotate(0) translate(4 181.681)">
<title>%3</title>
<polygon fill="white" stroke="none" points="-4,4 -4,-181.681 586.426,-181.681 586.426,4 -4,4"/>
<!-- In0 -->
<g id="node1" class="node"><title>In0</title>
<polygon fill="lightgray" stroke="black" points="399.713,-177.681 370.713,-177.681 370.713,-159.681 399.713,-159.681 399.713,-177.681"/>
<text text-anchor="middle" x="385.213" y="-166.481" font-family="Times New Roman,serif" font-size="9.00">In0</text>
</g>
<!-- 131 -->
<g id="node7" class="node"><title>131</title>
<ellipse fill="white" stroke="black" cx="261.213" cy="-102.468" rx="21.4286" ry="21.4286"/>
<text text-anchor="middle" x="261.213" y="-100.268" font-family="Times New Roman,serif" font-size="9.00">131</text>
</g>
<!-- In0&#45;&gt;131 -->
<g id="edge1" class="edge"><title>In0&#45;&gt;131</title>
<path fill="none" stroke="green" stroke-width="0.144498" d="M370.531,-161.65C351.729,-153.737 318.337,-139.044 291.213,-123.681 289.71,-122.83 288.184,-121.929 286.657,-120.997"/>
<polygon fill="green" stroke="green" stroke-width="0.144498" points="288.364,-117.934 278.056,-115.482 284.585,-123.826 288.364,-117.934"/>
</g>
<!-- 132 -->
<g id="node8" class="node"><title>132</title>
<ellipse fill="white" stroke="black" cx="321.213" cy="-102.468" rx="21.4286" ry="21.4286"/>
<text text-anchor="middle" x="321.213" y="-100.268" font-family="Times New Roman,serif" font-size="9.00">132</text>
</g>
<!-- In0&#45;&gt;132 -->
<g id="edge2" class="edge"><title>In0&#45;&gt;132</title>
<path fill="none" stroke="green" stroke-width="0.493969" d="M377.108,-159.549C368.609,-151.022 354.887,-137.254 343.167,-125.495"/>
<polygon fill="green" stroke="green" stroke-width="0.493969" points="345.367,-122.744 335.828,-118.132 340.409,-127.686 345.367,-122.744"/>
</g>
<!-- 133 -->
<g id="node9" class="node"><title>133</title>
<ellipse fill="white" stroke="black" cx="381.213" cy="-102.468" rx="21.4286" ry="21.4286"/>
<text text-anchor="middle" x="381.213" y="-100.268" font-family="Times New Roman,serif" font-size="9.00">133</text>
</g>
<!-- In0&#45;&gt;133 -->
<g id="edge3" class="edge"><title>In0&#45;&gt;133</title>
<path fill="none" stroke="green" stroke-width="0.182217" d="M384.707,-159.549C384.296,-152.956 383.69,-143.231 383.098,-133.723"/>
<polygon fill="green" stroke="green" stroke-width="0.182217" points="386.585,-133.412 382.47,-123.649 379.599,-133.847 386.585,-133.412"/>
</g>
<!-- 134 -->
<g id="node10" class="node"><title>134</title>
<ellipse fill="white" stroke="black" cx="441.213" cy="-102.468" rx="21.4286" ry="21.4286"/>
<text text-anchor="middle" x="441.213" y="-100.268" font-family="Times New Roman,serif" font-size="9.00">134</text>
</g>
<!-- In0&#45;&gt;134 -->
<g id="edge4" class="edge"><title>In0&#45;&gt;134</title>
<path fill="none" stroke="red" stroke-width="0.131868" d="M392.306,-159.549C399.527,-151.268 411.06,-138.044 421.113,-126.516"/>
<polygon fill="red" stroke="red" stroke-width="0.131868" points="423.83,-128.725 427.765,-118.888 418.555,-124.124 423.83,-128.725"/>
</g>
<!-- 135 -->
<g id="node11" class="node"><title>135</title>
<ellipse fill="white" stroke="black" cx="501.213" cy="-102.468" rx="21.4286" ry="21.4286"/>
<text text-anchor="middle" x="501.213" y="-100.268" font-family="Times New Roman,serif" font-size="9.00">135</text>
</g>
<!-- In0&#45;&gt;135 -->
<g id="edge5" class="edge"><title>In0&#45;&gt;135</title>
<path fill="none" stroke="green" stroke-width="0.151543" d="M399.801,-160.879C417.141,-152.644 446.8,-138.081 471.213,-123.681 472.701,-122.804 474.215,-121.882 475.733,-120.935"/>
<polygon fill="green" stroke="green" stroke-width="0.151543" points="477.822,-123.751 484.307,-115.374 474.013,-117.878 477.822,-123.751"/>
</g>
<!-- 136 -->
<g id="node12" class="node"><title>136</title>
<ellipse fill="white" stroke="black" cx="561.213" cy="-102.468" rx="21.4286" ry="21.4286"/>
<text text-anchor="middle" x="561.213" y="-100.268" font-family="Times New Roman,serif" font-size="9.00">136</text>
</g>
<!-- In0&#45;&gt;136 -->
<g id="edge6" class="edge"><title>In0&#45;&gt;136</title>
<path fill="none" stroke="red" stroke-width="0.391325" d="M399.835,-164.802C426.741,-159.176 485.526,-145.347 531.213,-123.681 532.774,-122.941 534.345,-122.127 535.907,-121.263"/>
<polygon fill="red" stroke="red" stroke-width="0.391325" points="537.904,-124.144 544.608,-115.941 534.251,-118.173 537.904,-124.144"/>
</g>
<!-- 137 -->
<g id="node13" class="node"><title>137</title>
<ellipse fill="white" stroke="black" cx="21.2132" cy="-102.468" rx="21.4286" ry="21.4286"/>
<text text-anchor="middle" x="21.2132" y="-100.268" font-family="Times New Roman,serif" font-size="9.00">137</text>
</g>
<!-- In0&#45;&gt;137 -->
<g id="edge7" class="edge"><title>In0&#45;&gt;137</title>
<path fill="none" stroke="green" stroke-width="0.239662" d="M370.258,-161.95C367.607,-161.087 364.851,-160.285 362.213,-159.681 226.575,-128.638 181.727,-171.926 51.2132,-123.681 49.5933,-123.082 47.9752,-122.379 46.3772,-121.6"/>
<polygon fill="green" stroke="green" stroke-width="0.239662" points="47.9842,-118.487 37.573,-116.523 44.4872,-124.551 47.9842,-118.487"/>
</g>
<!-- 138 -->
<g id="node14" class="node"><title>138</title>
<ellipse fill="white" stroke="black" cx="81.2132" cy="-102.468" rx="21.4286" ry="21.4286"/>
<text text-anchor="middle" x="81.2132" y="-100.268" font-family="Times New Roman,serif" font-size="9.00">138</text>
</g>
<!-- In0&#45;&gt;138 -->
<g id="edge8" class="edge"><title>In0&#45;&gt;138</title>
<path fill="none" stroke="red" stroke-width="0.165377" d="M370.244,-162.01C367.594,-161.14 364.842,-160.321 362.213,-159.681 252.709,-133.047 216.378,-164.19 111.213,-123.681 109.602,-123.06 107.99,-122.34 106.397,-121.548"/>
<polygon fill="red" stroke="red" stroke-width="0.165377" points="108.011,-118.437 97.6072,-116.432 104.49,-124.487 108.011,-118.437"/>
</g>
<!-- 139 -->
<g id="node15" class="node"><title>139</title>
<ellipse fill="white" stroke="black" cx="141.213" cy="-102.468" rx="21.4286" ry="21.4286"/>
<text text-anchor="middle" x="141.213" y="-100.268" font-family="Times New Roman,serif" font-size="9.00">139</text>
</g>
<!-- In0&#45;&gt;139 -->
<g id="edge9" class="edge"><title>In0&#45;&gt;139</title>
<path fill="none" stroke="green" stroke-width="0.11964" d="M370.219,-162.107C367.572,-161.227 364.828,-160.378 362.213,-159.681 278.744,-137.431 251.123,-156.491 171.213,-123.681 169.616,-123.025 168.015,-122.277 166.431,-121.464"/>
<polygon fill="green" stroke="green" stroke-width="0.11964" points="168.055,-118.359 157.665,-116.287 164.496,-124.386 168.055,-118.359"/>
</g>
<!-- 140 -->
<g id="node16" class="node"><title>140</title>
<ellipse fill="white" stroke="black" cx="201.213" cy="-102.468" rx="21.4286" ry="21.4286"/>
<text text-anchor="middle" x="201.213" y="-100.268" font-family="Times New Roman,serif" font-size="9.00">140</text>
</g>
<!-- In0&#45;&gt;140 -->
<g id="edge10" class="edge"><title>In0&#45;&gt;140</title>
<path fill="none" stroke="red" stroke-width="0.293497" d="M370.661,-162.456C367.868,-161.499 364.958,-160.535 362.213,-159.681 304.555,-141.753 286.083,-148.882 231.213,-123.681 229.644,-122.96 228.065,-122.161 226.498,-121.309"/>
<polygon fill="red" stroke="red" stroke-width="0.293497" points="228.146,-118.215 217.781,-116.02 224.515,-124.199 228.146,-118.215"/>
</g>
<!-- In1 -->
<g id="node2" class="node"><title>In1</title>
<polygon fill="lightgray" stroke="black" points="211.713,-177.681 182.713,-177.681 182.713,-159.681 211.713,-159.681 211.713,-177.681"/>
<text text-anchor="middle" x="197.213" y="-166.481" font-family="Times New Roman,serif" font-size="9.00">In1</text>
</g>
<!-- In1&#45;&gt;131 -->
<g id="edge11" class="edge"><title>In1&#45;&gt;131</title>
<path fill="none" stroke="red" stroke-width="0.153023" d="M205.319,-159.549C213.817,-151.022 227.539,-137.254 239.26,-125.495"/>
<polygon fill="red" stroke="red" stroke-width="0.153023" points="242.018,-127.686 246.598,-118.132 237.06,-122.744 242.018,-127.686"/>
</g>
<!-- In1&#45;&gt;132 -->
<g id="edge12" class="edge"><title>In1&#45;&gt;132</title>
<path fill="none" stroke="red" stroke-width="0.13912" d="M211.896,-161.65C230.697,-153.737 264.089,-139.044 291.213,-123.681 292.716,-122.83 294.242,-121.929 295.769,-120.997"/>
<polygon fill="red" stroke="red" stroke-width="0.13912" points="297.841,-123.826 304.37,-115.482 294.063,-117.934 297.841,-123.826"/>
</g>
<!-- In1&#45;&gt;133 -->
<g id="edge13" class="edge"><title>In1&#45;&gt;133</title>
<path fill="none" stroke="red" stroke-width="0.125939" d="M211.898,-162.653C214.967,-161.64 218.188,-160.604 221.213,-159.681 278.559,-142.196 296.757,-148.757 351.213,-123.681 352.782,-122.959 354.36,-122.158 355.927,-121.305"/>
<polygon fill="red" stroke="red" stroke-width="0.125939" points="357.911,-124.195 364.642,-116.013 354.278,-118.212 357.911,-124.195"/>
</g>
<!-- In1&#45;&gt;134 -->
<g id="edge14" class="edge"><title>In1&#45;&gt;134</title>
<path fill="none" stroke="green" stroke-width="0.231226" d="M211.843,-162.458C214.915,-161.459 218.153,-160.477 221.213,-159.681 304.392,-138.043 331.723,-156.364 411.213,-123.681 412.811,-123.025 414.411,-122.276 415.995,-121.462"/>
<polygon fill="green" stroke="green" stroke-width="0.231226" points="417.93,-124.384 424.76,-116.284 414.37,-118.357 417.93,-124.384"/>
</g>
<!-- In1&#45;&gt;135 -->
<g id="edge15" class="edge"><title>In1&#45;&gt;135</title>
<path fill="none" stroke="red" stroke-width="0.258837" d="M211.817,-162.352C214.891,-161.361 218.136,-160.41 221.213,-159.681 330.453,-133.829 366.47,-164.062 471.213,-123.681 472.825,-123.06 474.436,-122.339 476.029,-121.547"/>
<polygon fill="red" stroke="red" stroke-width="0.258837" points="477.937,-124.486 484.818,-116.43 474.415,-118.436 477.937,-124.486"/>
</g>
<!-- In1&#45;&gt;136 -->
<g id="edge16" class="edge"><title>In1&#45;&gt;136</title>
<path fill="none" stroke="red" stroke-width="0.493533" d="M211.802,-162.287C214.877,-161.3 218.126,-160.367 221.213,-159.681 356.614,-129.591 401.122,-171.797 531.213,-123.681 532.833,-123.082 534.451,-122.378 536.049,-121.6"/>
<polygon fill="red" stroke="red" stroke-width="0.493533" points="537.939,-124.55 544.853,-116.522 534.442,-118.486 537.939,-124.55"/>
</g>
<!-- In1&#45;&gt;137 -->
<g id="edge17" class="edge"><title>In1&#45;&gt;137</title>
<path fill="none" stroke="green" stroke-width="0.126652" d="M182.592,-164.802C155.685,-159.176 96.9003,-145.347 51.2132,-123.681 49.6527,-122.941 48.0813,-122.127 46.5193,-121.263"/>
<polygon fill="green" stroke="green" stroke-width="0.126652" points="48.1752,-118.173 37.8182,-115.941 44.5225,-124.144 48.1752,-118.173"/>
</g>
<!-- In1&#45;&gt;138 -->
<g id="edge18" class="edge"><title>In1&#45;&gt;138</title>
<path fill="none" stroke="green" stroke-width="0.365555" d="M182.625,-160.879C165.286,-152.644 135.626,-138.081 111.213,-123.681 109.726,-122.804 108.211,-121.882 106.694,-120.935"/>
<polygon fill="green" stroke="green" stroke-width="0.365555" points="108.413,-117.878 98.1189,-115.374 104.605,-123.751 108.413,-117.878"/>
</g>
<!-- In1&#45;&gt;139 -->
<g id="edge19" class="edge"><title>In1&#45;&gt;139</title>
<path fill="none" stroke="green" stroke-width="0.212042" d="M190.121,-159.549C182.899,-151.268 171.366,-138.044 161.313,-126.516"/>
<polygon fill="green" stroke="green" stroke-width="0.212042" points="163.872,-124.124 154.661,-118.888 158.596,-128.725 163.872,-124.124"/>
</g>
<!-- In1&#45;&gt;140 -->
<g id="edge20" class="edge"><title>In1&#45;&gt;140</title>
<path fill="none" stroke="red" stroke-width="0.200755" d="M197.72,-159.549C198.13,-152.956 198.736,-143.231 199.329,-133.723"/>
<polygon fill="red" stroke="red" stroke-width="0.200755" points="202.827,-133.847 199.956,-123.649 195.841,-133.412 202.827,-133.847"/>
</g>
<!-- In2 -->
<g id="node3" class="node"><title>In2</title>
<polygon fill="lightgray" stroke="black" points="258.713,-177.681 229.713,-177.681 229.713,-159.681 258.713,-159.681 258.713,-177.681"/>
<text text-anchor="middle" x="244.213" y="-166.481" font-family="Times New Roman,serif" font-size="9.00">In2</text>
</g>
<!-- In2&#45;&gt;131 -->
<g id="edge21" class="edge"><title>In2&#45;&gt;131</title>
<path fill="none" stroke="green" stroke-width="0.323256" d="M246.366,-159.549C248.157,-152.786 250.82,-142.726 253.398,-132.986"/>
<polygon fill="green" stroke="green" stroke-width="0.323256" points="256.839,-133.666 256.015,-123.104 250.072,-131.875 256.839,-133.666"/>
</g>
<!-- In2&#45;&gt;132 -->
<g id="edge22" class="edge"><title>In2&#45;&gt;132</title>
<path fill="none" stroke="green" stroke-width="0.49055" d="M253.965,-159.549C264.892,-150.437 282.995,-135.339 297.668,-123.104"/>
<polygon fill="green" stroke="green" stroke-width="0.49055" points="299.96,-125.749 305.399,-116.656 295.477,-120.373 299.96,-125.749"/>
</g>
<!-- In2&#45;&gt;133 -->
<g id="edge23" class="edge"><title>In2&#45;&gt;133</title>
<path fill="none" stroke="red" stroke-width="0.116624" d="M258.828,-162.739C279.832,-155.401 319.516,-140.65 351.213,-123.681 352.736,-122.866 354.277,-121.993 355.817,-121.083"/>
<polygon fill="red" stroke="red" stroke-width="0.116624" points="357.865,-123.929 364.452,-115.631 354.128,-118.01 357.865,-123.929"/>
</g>
<!-- In2&#45;&gt;134 -->
<g id="edge24" class="edge"><title>In2&#45;&gt;134</title>
<path fill="none" stroke="red" stroke-width="0.263126" d="M258.881,-162.598C261.951,-161.589 265.178,-160.568 268.213,-159.681 331.123,-141.306 351.364,-150.391 411.213,-123.681 412.79,-122.977 414.375,-122.191 415.947,-121.349"/>
<polygon fill="red" stroke="red" stroke-width="0.263126" points="417.918,-124.248 424.677,-116.09 414.305,-118.252 417.918,-124.248"/>
</g>
<!-- In2&#45;&gt;135 -->
<g id="edge25" class="edge"><title>In2&#45;&gt;135</title>
<path fill="none" stroke="green" stroke-width="0.114146" d="M258.836,-162.43C261.909,-161.433 265.148,-160.459 268.213,-159.681 357.026,-137.133 386.264,-158.027 471.213,-123.681 472.814,-123.034 474.418,-122.292 476.004,-121.484"/>
<polygon fill="green" stroke="green" stroke-width="0.114146" points="477.932,-124.411 484.776,-116.323 474.382,-118.378 477.932,-124.411"/>
</g>
<!-- In2&#45;&gt;136 -->
<g id="edge26" class="edge"><title>In2&#45;&gt;136</title>
<path fill="none" stroke="red" stroke-width="0.143006" d="M258.813,-162.336C261.888,-161.345 265.133,-160.399 268.213,-159.681 383.115,-132.912 420.984,-165.735 531.213,-123.681 532.827,-123.066 534.44,-122.349 536.034,-121.56"/>
<polygon fill="red" stroke="red" stroke-width="0.143006" points="537.937,-124.502 544.827,-116.454 534.422,-118.449 537.937,-124.502"/>
</g>
<!-- In2&#45;&gt;137 -->
<g id="edge27" class="edge"><title>In2&#45;&gt;137</title>
<path fill="none" stroke="green" stroke-width="0.187929" d="M229.7,-162.323C226.904,-161.379 223.983,-160.453 221.213,-159.681 146.815,-138.954 122.324,-153.813 51.2132,-123.681 49.623,-123.007 48.0283,-122.245 46.4483,-121.421"/>
<polygon fill="green" stroke="green" stroke-width="0.187929" points="48.0792,-118.319 37.6956,-116.214 44.5,-124.335 48.0792,-118.319"/>
</g>
<!-- In2&#45;&gt;138 -->
<g id="edge28" class="edge"><title>In2&#45;&gt;138</title>
<path fill="none" stroke="green" stroke-width="0.25802" d="M229.627,-162.562C226.837,-161.596 223.937,-160.601 221.213,-159.681 172.474,-143.231 157.429,-146.269 111.213,-123.681 109.662,-122.923 108.097,-122.094 106.54,-121.219"/>
<polygon fill="green" stroke="green" stroke-width="0.25802" points="108.204,-118.133 97.8546,-115.865 104.531,-124.092 108.204,-118.133"/>
</g>
<!-- In2&#45;&gt;139 -->
<g id="edge29" class="edge"><title>In2&#45;&gt;139</title>
<path fill="none" stroke="red" stroke-width="0.196264" d="M230.363,-159.614C215.584,-150.942 191.55,-136.65 171.213,-123.681 169.757,-122.753 168.267,-121.79 166.769,-120.812"/>
<polygon fill="red" stroke="red" stroke-width="0.196264" points="168.517,-117.772 158.248,-115.163 164.649,-123.606 168.517,-117.772"/>
</g>
<!-- In2&#45;&gt;140 -->
<g id="edge30" class="edge"><title>In2&#45;&gt;140</title>
<path fill="none" stroke="red" stroke-width="0.180831" d="M238.767,-159.549C233.596,-151.826 225.546,-139.805 218.223,-128.869"/>
<polygon fill="red" stroke="red" stroke-width="0.180831" points="221.047,-126.797 212.575,-120.435 215.231,-130.692 221.047,-126.797"/>
</g>
<!-- In3 -->
<g id="node4" class="node"><title>In3</title>
<polygon fill="lightgray" stroke="black" points="305.713,-177.681 276.713,-177.681 276.713,-159.681 305.713,-159.681 305.713,-177.681"/>
<text text-anchor="middle" x="291.213" y="-166.481" font-family="Times New Roman,serif" font-size="9.00">In3</text>
</g>
<!-- In3&#45;&gt;131 -->
<g id="edge31" class="edge"><title>In3&#45;&gt;131</title>
<path fill="none" stroke="green" stroke-width="0.370201" d="M287.414,-159.549C284.058,-152.366 278.964,-141.463 274.158,-131.175"/>
<polygon fill="green" stroke="green" stroke-width="0.370201" points="277.286,-129.602 269.882,-122.024 270.944,-132.565 277.286,-129.602"/>
</g>
<!-- In3&#45;&gt;132 -->
<g id="edge32" class="edge"><title>In3&#45;&gt;132</title>
<path fill="none" stroke="red" stroke-width="0.13339" d="M295.013,-159.549C298.369,-152.366 303.462,-141.463 308.269,-131.175"/>
<polygon fill="red" stroke="red" stroke-width="0.13339" points="311.482,-132.565 312.544,-122.024 305.14,-129.602 311.482,-132.565"/>
</g>
<!-- In3&#45;&gt;133 -->
<g id="edge33" class="edge"><title>In3&#45;&gt;133</title>
<path fill="none" stroke="green" stroke-width="0.306502" d="M302.612,-159.549C316.026,-149.978 338.695,-133.804 356.251,-121.278"/>
<polygon fill="green" stroke="green" stroke-width="0.306502" points="358.288,-124.124 364.395,-115.467 354.222,-118.426 358.288,-124.124"/>
</g>
<!-- In3&#45;&gt;134 -->
<g id="edge34" class="edge"><title>In3&#45;&gt;134</title>
<path fill="none" stroke="red" stroke-width="0.117647" d="M305.974,-162.768C333.622,-153.483 392.143,-133.42 411.213,-123.681 412.751,-122.896 414.305,-122.046 415.854,-121.154"/>
<polygon fill="red" stroke="red" stroke-width="0.117647" points="417.882,-124.014 424.516,-115.753 414.178,-118.074 417.882,-124.014"/>
</g>
<!-- In3&#45;&gt;135 -->
<g id="edge35" class="edge"><title>In3&#45;&gt;135</title>
<path fill="none" stroke="red" stroke-width="0.177433" d="M305.868,-162.551C308.939,-161.545 312.169,-160.538 315.213,-159.681 383.709,-140.409 405.951,-152.035 471.213,-123.681 472.797,-122.993 474.387,-122.219 475.963,-121.387"/>
<polygon fill="red" stroke="red" stroke-width="0.177433" points="477.922,-124.293 484.705,-116.154 474.327,-118.287 477.922,-124.293"/>
</g>
<!-- In3&#45;&gt;136 -->
<g id="edge36" class="edge"><title>In3&#45;&gt;136</title>
<path fill="none" stroke="green" stroke-width="0.314537" d="M305.829,-162.405C308.903,-161.41 312.144,-160.444 315.213,-159.681 409.668,-136.221 440.797,-159.693 531.213,-123.681 532.818,-123.042 534.424,-122.307 536.012,-121.504"/>
<polygon fill="green" stroke="green" stroke-width="0.314537" points="537.934,-124.435 544.79,-116.357 534.393,-118.396 537.934,-124.435"/>
</g>
<!-- In3&#45;&gt;137 -->
<g id="edge37" class="edge"><title>In3&#45;&gt;137</title>
<path fill="none" stroke="red" stroke-width="0.242577" d="M276.231,-162.059C273.584,-161.184 270.835,-160.35 268.213,-159.681 173.479,-135.535 142.051,-159.821 51.2132,-123.681 49.6085,-123.043 48.0023,-122.308 46.4136,-121.506"/>
<polygon fill="red" stroke="red" stroke-width="0.242577" points="48.0326,-118.398 37.6357,-116.36 44.4923,-124.436 48.0326,-118.398"/>
</g>
<!-- In3&#45;&gt;138 -->
<g id="edge38" class="edge"><title>In3&#45;&gt;138</title>
<path fill="none" stroke="red" stroke-width="0.368346" d="M276.69,-162.36C273.894,-161.413 270.976,-160.476 268.213,-159.681 199.414,-139.893 176.893,-152.162 111.213,-123.681 109.629,-122.994 108.038,-122.221 106.462,-121.389"/>
<polygon fill="red" stroke="red" stroke-width="0.368346" points="108.098,-118.289 97.7191,-116.159 104.504,-124.296 108.098,-118.289"/>
</g>
<!-- In3&#45;&gt;139 -->
<g id="edge39" class="edge"><title>In3&#45;&gt;139</title>
<path fill="none" stroke="green" stroke-width="0.166844" d="M276.58,-162.539C246.761,-152.028 180.946,-128.652 171.213,-123.681 169.675,-122.896 168.121,-122.046 166.573,-121.154"/>
<polygon fill="green" stroke="green" stroke-width="0.166844" points="168.248,-118.074 157.911,-115.753 164.544,-124.014 168.248,-118.074"/>
</g>
<!-- In3&#45;&gt;140 -->
<g id="edge40" class="edge"><title>In3&#45;&gt;140</title>
<path fill="none" stroke="green" stroke-width="0.227429" d="M279.815,-159.549C266.401,-149.978 243.732,-133.804 226.176,-121.278"/>
<polygon fill="green" stroke="green" stroke-width="0.227429" points="228.204,-118.426 218.031,-115.467 224.139,-124.124 228.204,-118.426"/>
</g>
<!-- In4 -->
<g id="node5" class="node"><title>In4</title>
<polygon fill="lightgray" stroke="black" points="352.713,-177.681 323.713,-177.681 323.713,-159.681 352.713,-159.681 352.713,-177.681"/>
<text text-anchor="middle" x="338.213" y="-166.481" font-family="Times New Roman,serif" font-size="9.00">In4</text>
</g>
<!-- In4&#45;&gt;131 -->
<g id="edge41" class="edge"><title>In4&#45;&gt;131</title>
<path fill="none" stroke="red" stroke-width="0.159969" d="M328.461,-159.549C317.535,-150.437 299.431,-135.339 284.759,-123.104"/>
<polygon fill="red" stroke="red" stroke-width="0.159969" points="286.949,-120.373 277.028,-116.656 282.466,-125.749 286.949,-120.373"/>
</g>
<!-- In4&#45;&gt;132 -->
<g id="edge42" class="edge"><title>In4&#45;&gt;132</title>
<path fill="none" stroke="red" stroke-width="0.103717" d="M336.06,-159.549C334.27,-152.786 331.607,-142.726 329.028,-132.986"/>
<polygon fill="red" stroke="red" stroke-width="0.103717" points="332.354,-131.875 326.412,-123.104 325.587,-133.666 332.354,-131.875"/>
</g>
<!-- In4&#45;&gt;133 -->
<g id="edge43" class="edge"><title>In4&#45;&gt;133</title>
<path fill="none" stroke="green" stroke-width="0.228709" d="M343.659,-159.549C348.83,-151.826 356.881,-139.805 364.203,-128.869"/>
<polygon fill="green" stroke="green" stroke-width="0.228709" points="367.195,-130.692 369.851,-120.435 361.379,-126.797 367.195,-130.692"/>
</g>
<!-- In4&#45;&gt;134 -->
<g id="edge44" class="edge"><title>In4&#45;&gt;134</title>
<path fill="none" stroke="red" stroke-width="0.634476" d="M352.064,-159.614C366.842,-150.942 390.876,-136.65 411.213,-123.681 412.669,-122.753 414.159,-121.79 415.658,-120.812"/>
<polygon fill="red" stroke="red" stroke-width="0.634476" points="417.778,-123.606 424.178,-115.163 413.909,-117.772 417.778,-123.606"/>
</g>
<!-- In4&#45;&gt;135 -->
<g id="edge45" class="edge"><title>In4&#45;&gt;135</title>
<path fill="none" stroke="green" stroke-width="0.200957" d="M352.934,-162.767C356,-161.746 359.212,-160.677 362.213,-159.681 410.636,-143.615 425.407,-146.145 471.213,-123.681 472.764,-122.921 474.328,-122.09 475.884,-121.214"/>
<polygon fill="green" stroke="green" stroke-width="0.200957" points="477.895,-124.086 484.568,-115.856 474.219,-118.128 477.895,-124.086"/>
</g>
<!-- In4&#45;&gt;136 -->
<g id="edge46" class="edge"><title>In4&#45;&gt;136</title>
<path fill="none" stroke="red" stroke-width="0.158792" d="M352.857,-162.511C355.929,-161.508 359.162,-160.512 362.213,-159.681 436.312,-139.507 460.521,-153.686 531.213,-123.681 532.803,-123.006 534.397,-122.243 535.977,-121.419"/>
<polygon fill="red" stroke="red" stroke-width="0.158792" points="537.926,-124.332 544.729,-116.21 534.346,-118.317 537.926,-124.332"/>
</g>
<!-- In4&#45;&gt;137 -->
<g id="edge47" class="edge"><title>In4&#45;&gt;137</title>
<path fill="none" stroke="green" stroke-width="0.143936" d="M323.247,-161.995C320.598,-161.127 317.844,-160.312 315.213,-159.681 200.052,-132.093 161.864,-165.864 51.2132,-123.681 49.5994,-123.066 47.9862,-122.35 46.392,-121.561"/>
<polygon fill="green" stroke="green" stroke-width="0.143936" points="48.0038,-118.45 37.5984,-116.455 44.4889,-124.503 48.0038,-118.45"/>
</g>
<!-- In4&#45;&gt;138 -->
<g id="edge48" class="edge"><title>In4&#45;&gt;138</title>
<path fill="none" stroke="green" stroke-width="0.16402" d="M323.226,-162.082C320.578,-161.204 317.832,-160.363 315.213,-159.681 226.116,-136.484 196.583,-158.155 111.213,-123.681 109.612,-123.035 108.008,-122.294 106.421,-121.486"/>
<polygon fill="green" stroke="green" stroke-width="0.16402" points="108.043,-118.379 97.6493,-116.326 104.494,-124.413 108.043,-118.379"/>
</g>
<!-- In4&#45;&gt;139 -->
<g id="edge49" class="edge"><title>In4&#45;&gt;139</title>
<path fill="none" stroke="red" stroke-width="0.315629" d="M323.677,-162.404C320.882,-161.453 317.968,-160.503 315.213,-159.681 251.995,-140.826 231.478,-150.517 171.213,-123.681 169.635,-122.979 168.051,-122.194 166.478,-121.352"/>
<polygon fill="red" stroke="red" stroke-width="0.315629" points="168.119,-118.255 157.747,-116.095 164.508,-124.252 168.119,-118.255"/>
</g>
<!-- In4&#45;&gt;140 -->
<g id="edge50" class="edge"><title>In4&#45;&gt;140</title>
<path fill="none" stroke="red" stroke-width="0.345036" d="M323.501,-162.058C298.294,-152.353 247.947,-132.64 231.213,-123.681 229.691,-122.866 228.149,-121.993 226.61,-121.083"/>
<polygon fill="red" stroke="red" stroke-width="0.345036" points="228.299,-118.01 217.974,-115.631 224.561,-123.929 228.299,-118.01"/>
</g>
<!-- act1 -->
<g id="node6" class="node"><title>act1</title>
<ellipse fill="lightblue" stroke="black" cx="291.213" cy="-22.6274" rx="22.7556" ry="22.7556"/>
<text text-anchor="middle" x="291.213" y="-20.4274" font-family="Times New Roman,serif" font-size="9.00">act1</text>
</g>
<!-- 131&#45;&gt;act1 -->
<g id="edge51" class="edge"><title>131&#45;&gt;act1</title>
<path fill="none" stroke="red" stroke-width="0.109588" d="M268.629,-82.2265C271.951,-73.6057 275.948,-63.2368 279.649,-53.6332"/>
<polygon fill="red" stroke="red" stroke-width="0.109588" points="283.028,-54.5973 283.359,-44.0076 276.497,-52.0799 283.028,-54.5973"/>
</g>
<!-- 132&#45;&gt;act1 -->
<g id="edge52" class="edge"><title>132&#45;&gt;act1</title>
<path fill="none" stroke="red" stroke-width="0.138362" d="M313.797,-82.2265C310.475,-73.6057 306.479,-63.2368 302.778,-53.6332"/>
<polygon fill="red" stroke="red" stroke-width="0.138362" points="305.93,-52.0799 299.068,-44.0076 299.398,-54.5973 305.93,-52.0799"/>
</g>
<!-- 133&#45;&gt;act1 -->
<g id="edge53" class="edge"><title>133&#45;&gt;act1</title>
<path fill="none" stroke="red" stroke-width="0.352108" d="M365.536,-87.9092C351.813,-76.0396 331.644,-58.5958 315.778,-44.8736"/>
<polygon fill="red" stroke="red" stroke-width="0.352108" points="317.784,-41.9807 307.931,-38.0862 313.205,-47.2751 317.784,-41.9807"/>
</g>
<!-- 134&#45;&gt;act1 -->
<g id="edge54" class="edge"><title>134&#45;&gt;act1</title>
<path fill="none" stroke="red" stroke-width="0.28904" d="M424.353,-89.4847C420.137,-86.6632 415.573,-83.7526 411.213,-81.2548 381.472,-64.2143 345.915,-47.5764 321.263,-36.594"/>
<polygon fill="red" stroke="red" stroke-width="0.28904" points="322.623,-33.3686 312.061,-32.5318 319.796,-39.7724 322.623,-33.3686"/>
</g>
<!-- 135&#45;&gt;act1 -->
<g id="edge55" class="edge"><title>135&#45;&gt;act1</title>
<path fill="none" stroke="red" stroke-width="0.422542" d="M484.582,-89.0505C480.359,-86.2422 475.734,-83.4464 471.213,-81.2548 421.9,-57.3504 360.319,-40.1088 323.465,-31.0107"/>
<polygon fill="red" stroke="red" stroke-width="0.422542" points="323.852,-27.5036 313.31,-28.5559 322.207,-34.3076 323.852,-27.5036"/>
</g>
<!-- 136&#45;&gt;act1 -->
<g id="edge56" class="edge"><title>136&#45;&gt;act1</title>
<path fill="none" stroke="red" stroke-width="0.155247" d="M544.693,-88.8106C540.467,-86.0096 535.812,-83.2772 531.213,-81.2548 460.648,-50.2251 370.743,-34.3486 323.525,-27.6513"/>
<polygon fill="red" stroke="red" stroke-width="0.155247" points="323.954,-24.1774 313.571,-26.2866 323.003,-31.1125 323.954,-24.1774"/>
</g>
<!-- 137&#45;&gt;act1 -->
<g id="edge57" class="edge"><title>137&#45;&gt;act1</title>
<path fill="none" stroke="green" stroke-width="0.194832" d="M37.7337,-88.8106C41.9596,-86.0096 46.614,-83.2772 51.2132,-81.2548 121.779,-50.2251 211.683,-34.3486 258.901,-27.6513"/>
<polygon fill="green" stroke="green" stroke-width="0.194832" points="259.423,-31.1125 268.855,-26.2866 258.472,-24.1774 259.423,-31.1125"/>
</g>
<!-- 138&#45;&gt;act1 -->
<g id="edge58" class="edge"><title>138&#45;&gt;act1</title>
<path fill="none" stroke="green" stroke-width="0.282491" d="M97.8445,-89.0505C102.067,-86.2422 106.692,-83.4464 111.213,-81.2548 160.526,-57.3504 222.108,-40.1088 258.961,-31.0107"/>
<polygon fill="green" stroke="green" stroke-width="0.282491" points="260.219,-34.3076 269.117,-28.5559 258.574,-27.5036 260.219,-34.3076"/>
</g>
<!-- 139&#45;&gt;act1 -->
<g id="edge59" class="edge"><title>139&#45;&gt;act1</title>
<path fill="none" stroke="red" stroke-width="0.178541" d="M158.074,-89.4847C162.289,-86.6632 166.854,-83.7526 171.213,-81.2548 200.954,-64.2143 236.511,-47.5764 261.163,-36.594"/>
<polygon fill="red" stroke="red" stroke-width="0.178541" points="262.63,-39.7724 270.365,-32.5318 259.803,-33.3686 262.63,-39.7724"/>
</g>
<!-- 140&#45;&gt;act1 -->
<g id="edge60" class="edge"><title>140&#45;&gt;act1</title>
<path fill="none" stroke="green" stroke-width="0.573953" d="M216.89,-87.9092C230.614,-76.0396 250.782,-58.5958 266.648,-44.8736"/>
<polygon fill="green" stroke="green" stroke-width="0.573953" points="269.222,-47.2751 274.496,-38.0862 264.643,-41.9807 269.222,-47.2751"/>
</g>
</g>
</svg>
